<svg viewBox="0 0 1920 1080" xmlns="http://www.w3.org/2000/svg" xml:space="preserve" style="fill-rule:evenodd;clip-rule:evenodd;stroke-linecap:round;stroke-linejoin:round;stroke-miterlimit:1.5"><style xmlns="http://www.w3.org/2000/svg">[style*=stroke]{stroke:#000!important}[style*=fill]:not([style*=&quot;fill:none&quot;]){fill:#000!important}@media (prefers-color-scheme:dark){[style*=stroke]{stroke:#fff!important}[style*=fill]:not([style*=&quot;fill:none&quot;]){fill:#fff!important}}</style><path id="concept_svg__Outline" d="M737.897 278.342V48.614c0-1.103-.896-2-2-2h-618.01c-1.103 0-2 .897-2 2v982.776c0 1.1.897 2 2 2h618.01c1.104 0 2-.9 2-2V300.072" style="fill:none;stroke:#0969da;stroke-width:3px"/><path d="M1408.96 160.021v19.129h60.85v-8.213a4.176 4.176 0 0 0-.71-.296 2.085 2.085 0 0 1-1.45-1.982v-.531c0-1.151.94-2.089 2.1-2.089l.25.016c2.34.283 3.43 1.576 4.08 2.345.06.072.13.15.19.225.05-.171.1-.411.13-.734.1-1.08.99-1.896 2.08-1.896h37.65c1.09 0 1.98.816 2.08 1.894.03.327.08.571.13.742.06-.075.13-.157.19-.231.65-.769 1.74-2.06 4.08-2.345l.25-.016c1.16 0 2.1.94 2.1 2.093v.525c0 .908-.58 1.703-1.45 1.986-.34.11-.57.218-.71.296v8.211h53.07v-8.213a4.015 4.015 0 0 0-.71-.296 2.07 2.07 0 0 1-1.45-1.982v-.531c0-1.151.94-2.089 2.1-2.089l.25.016c2.34.283 3.43 1.576 4.08 2.347.06.07.13.148.19.223.05-.169.1-.409.13-.736.1-1.078.99-1.894 2.08-1.894h37.65c1.09 0 1.98.816 2.08 1.894.03.331.08.573.13.744.06-.075.13-.159.19-.231.65-.769 1.74-2.062 4.07-2.347l.26-.016c1.16 0 2.1.94 2.1 2.093v.525c0 .908-.58 1.703-1.44 1.986-.35.11-.58.218-.72.296v8.211h53.34v-13.155h70.29v13.155h29.37c13.73 0 24.91 11.169 24.91 24.899V583.38c0 13.73-11.18 24.899-24.91 24.899h-603.52c-10.69 0-20.26-6.954-23.62-17.035h-29.54V466.612h28.25V434.4h-26.9c-.08.058-.66.667-1.25 2.487a2.88 2.88 0 0 1-2.74 1.996h-1.1c-.82 0-1.61-.355-2.16-.976a2.93 2.93 0 0 1-.71-2.283c.53-4.293 2.84-6.243 4.37-7.533 1.02-.858 1.43-1.255 1.43-1.738 0-.878-1.77-1.347-3.3-1.483a2.856 2.856 0 0 1-2.61-2.864v-78.207a2.864 2.864 0 0 1 2.61-2.87c1.53-.136 3.3-.605 3.3-1.483 0-.483-.41-.88-1.43-1.735-1.53-1.291-3.84-3.239-4.37-7.532-.1-.824.16-1.657.72-2.285a2.874 2.874 0 0 1 2.15-.978h1.1c1.25 0 2.35.806 2.74 2 .59 1.818 1.17 2.425 1.33 2.496l26.82-.012v-34.457h-26.9c-.08.056-.66.665-1.25 2.485a2.88 2.88 0 0 1-2.74 1.998h-1.1c-.82 0-1.61-.355-2.16-.976a2.928 2.928 0 0 1-.71-2.285c.53-4.291 2.84-6.243 4.37-7.531 1.02-.858 1.43-1.255 1.43-1.738 0-.88-1.77-1.349-3.3-1.485a2.852 2.852 0 0 1-2.61-2.862V206.34a2.867 2.867 0 0 1 2.62-2.868c1.52-.136 3.29-.605 3.29-1.483 0-.483-.41-.88-1.43-1.735-1.53-1.293-3.84-3.241-4.37-7.534-.1-.824.16-1.657.72-2.283.55-.623 1.33-.98 2.15-.98h1.1c1.25 0 2.35.806 2.74 2.001.59 1.819 1.17 2.427 1.33 2.497l28.98-.012c4-9.015 12.83-14.793 22.75-14.793h187.07v-19.129h47.55Z" style="fill:none"/><path d="M1174.34 609.626h603.52c14.48 0 26.25-11.774 26.25-26.246V204.049c0-14.473-11.77-26.246-26.25-26.246h-27.28v-13.155h-72.99v13.155h-50.66v-5.958a3.427 3.427 0 0 0 2.16-3.188v-.525c0-1.898-1.54-3.44-3.45-3.44h-.16l-.26.027c-1.57.19-2.68.759-3.49 1.376a3.434 3.434 0 0 0-2.82-1.447h-37.66c-1.16 0-2.19.566-2.81 1.447-.81-.619-1.93-1.188-3.5-1.378l-.17-.021-.25-.006a3.44 3.44 0 0 0-3.44 3.438v.531c0 1.413.85 2.665 2.16 3.184v5.96h-50.39v-5.96a3.422 3.422 0 0 0 2.16-3.186v-.525a3.45 3.45 0 0 0-3.45-3.44h-.16l-.26.027c-1.57.19-2.69.759-3.5 1.378a3.407 3.407 0 0 0-2.81-1.449h-37.66c-1.16 0-2.19.566-2.81 1.447-.81-.619-1.93-1.188-3.5-1.378l-.17-.021-.25-.006a3.45 3.45 0 0 0-3.45 3.438v.531c0 1.413.86 2.665 2.16 3.184v5.96h-57.79v-17.839h-49.97v17.839h-187.05c-10.16 0-19.23 5.746-23.61 14.791h-27.51c-.17-.287-.41-.784-.65-1.551a4.239 4.239 0 0 0-4.03-2.932h-1.1c-1.2 0-2.36.521-3.16 1.431a4.257 4.257 0 0 0-1.04 3.343c.58 4.817 3.14 6.972 4.83 8.399.19.158.42.347.61.517-.37.124-.93.256-1.73.331a4.206 4.206 0 0 0-3.84 4.208v78.209c0 2.201 1.65 4.01 3.84 4.205.8.07 1.36.204 1.73.328-.19.173-.42.361-.61.52-1.69 1.426-4.25 3.583-4.83 8.407a4.24 4.24 0 0 0 1.04 3.335c.8.91 1.95 1.429 3.16 1.429h1.1c1.84 0 3.46-1.177 4.02-2.93.25-.768.49-1.265.66-1.554h24.87v31.764h-24.87c-.17-.287-.41-.786-.65-1.553a4.239 4.239 0 0 0-4.03-2.932h-1.1c-1.2 0-2.36.521-3.16 1.431a4.259 4.259 0 0 0-1.04 3.344c.58 4.816 3.14 6.973 4.83 8.398.19.16.42.346.61.517-.37.126-.93.258-1.73.328a4.205 4.205 0 0 0-3.84 4.213v78.207c0 2.203 1.65 4.01 3.84 4.207.8.07 1.36.204 1.73.328-.19.171-.42.359-.61.517-1.69 1.427-4.25 3.584-4.83 8.408a4.247 4.247 0 0 0 1.04 3.337c.8.907 1.95 1.429 3.16 1.429h1.1c1.84 0 3.45-1.177 4.02-2.928.25-.77.49-1.269.66-1.556h24.87v29.517h-28.25v127.326h29.93c3.81 10.125 13.63 17.035 24.57 17.035Zm0-2.695c-10.75 0-19.79-7.201-22.62-17.035h-29.19V467.961h28.25v-34.908h-28.25c-1.23 0-2.1 2.092-2.53 3.417a1.536 1.536 0 0 1-1.46 1.066h-1.1c-.92 0-1.64-.83-1.53-1.746.78-6.407 5.81-6.621 5.81-9.437 0-2.094-2.78-2.672-4.53-2.826a1.516 1.516 0 0 1-1.38-1.521v-78.207c0-.792.6-1.455 1.38-1.527 1.75-.156 4.53-.734 4.53-2.826 0-2.814-5.03-3.03-5.81-9.429-.11-.922.61-1.752 1.53-1.752h1.1c.67 0 1.25.431 1.46 1.068.43 1.325 1.3 3.413 2.53 3.413h28.25v-37.152h-28.25c-1.23 0-2.1 2.092-2.53 3.417a1.536 1.536 0 0 1-1.46 1.068h-1.1c-.92 0-1.64-.828-1.53-1.747.78-6.408 5.81-6.62 5.81-9.436 0-2.094-2.78-2.671-4.53-2.828a1.515 1.515 0 0 1-1.38-1.519V206.34c0-.791.6-1.453 1.38-1.525 1.75-.156 4.53-.733 4.53-2.826 0-2.814-5.03-3.028-5.81-9.431-.11-.92.61-1.752 1.53-1.752h1.1c.67 0 1.25.431 1.46 1.068.43 1.327 1.3 3.415 2.53 3.415h29.96c3.47-8.665 11.94-14.79 21.85-14.79h189.74v-17.838h44.59v17.838h63.18v-9.92c0-.594-1.01-1.012-1.65-1.221a.737.737 0 0 1-.51-.699v-.531a.751.751 0 0 1 .84-.734c3.09.373 3.19 2.796 4.55 2.796 1 0 1.28-1.341 1.35-2.181a.744.744 0 0 1 .74-.665h37.66c.39 0 .71.289.74.665.07.842.35 2.181 1.36 2.181 1.35 0 1.46-2.421 4.54-2.796a.747.747 0 0 1 .84.738v.525a.73.73 0 0 1-.51.703c-.64.207-1.65.627-1.65 1.219v9.92h55.78v-9.92c0-.594-1.01-1.012-1.64-1.221a.733.733 0 0 1-.52-.699v-.531a.751.751 0 0 1 .84-.734c3.09.373 3.19 2.796 4.55 2.796 1 0 1.28-1.341 1.36-2.181a.728.728 0 0 1 .73-.665h37.66c.39 0 .71.289.74.665.08.842.35 2.181 1.36 2.181 1.36 0 1.46-2.421 4.54-2.796a.756.756 0 0 1 .85.738v.525a.74.74 0 0 1-.52.703c-.64.207-1.64.627-1.64 1.219v9.92h56.05v-13.155h67.6v13.155h29.97c13.01 0 23.56 10.542 23.56 23.55V583.38c0 13.007-10.55 23.551-23.56 23.551h-603.52Z" style="fill:#0969da"/><path d="M1255.26 195.255h-132.73c-1.23 0-2.1-2.088-2.53-3.415a1.536 1.536 0 0 0-1.46-1.068h-1.1c-.92 0-1.64.832-1.53 1.752.78 6.401 5.81 6.615 5.81 9.431 0 2.092-2.78 2.67-4.53 2.826-.78.07-1.38.734-1.38 1.525v78.207c0 .79.59 1.451 1.38 1.521 1.75.157 4.53.732 4.53 2.826 0 2.816-5.03 3.03-5.81 9.437-.11.918.61 1.746 1.53 1.746h1.1c.67 0 1.25-.431 1.46-1.064.43-1.327 1.3-3.419 2.53-3.419h132.73V195.255Zm31.69 272.67h-164.42v121.934h164.42V467.925Zm20.75 111.762c0-12.049 9.77-21.817 21.82-21.817 12.06 0 21.83 9.768 21.83 21.817 0 12.048-9.77 21.816-21.83 21.816-12.05 0-21.82-9.768-21.82-21.816Zm10.75 0c0-6.117 4.96-11.073 11.07-11.073 6.12 0 11.08 4.956 11.08 11.073 0 6.116-4.96 11.072-11.08 11.072-6.11 0-11.07-4.956-11.07-11.072Zm433.93 0c0-12.049 9.77-21.817 21.82-21.817s21.82 9.768 21.82 21.817c0 12.048-9.77 21.816-21.82 21.816s-21.82-9.768-21.82-21.816Zm10.75 0c0-6.117 4.95-11.073 11.07-11.073s11.08 4.956 11.08 11.073c0 6.116-4.96 11.072-11.08 11.072s-11.07-4.956-11.07-11.072Zm-10.75-372.016c0-12.049 9.77-21.817 21.82-21.817s21.82 9.768 21.82 21.817c0 12.051-9.77 21.817-21.82 21.817s-21.82-9.766-21.82-21.817Zm10.75 0c0-6.115 4.95-11.071 11.07-11.071s11.08 4.956 11.08 11.071c0 6.117-4.96 11.075-11.08 11.075s-11.07-4.958-11.07-11.075Zm-455.43 0c0-12.049 9.77-21.817 21.82-21.817 12.06 0 21.83 9.768 21.83 21.817 0 12.051-9.77 21.817-21.83 21.817-12.05 0-21.82-9.766-21.82-21.817Zm10.75 0c0-6.115 4.96-11.071 11.07-11.071 6.12 0 11.08 4.956 11.08 11.071 0 6.117-4.96 11.075-11.08 11.075-6.11 0-11.07-4.958-11.07-11.075Zm42.3 358.75 2.7-5.393h13.71l2.7 5.393v27.429l-2.7 5.391h-13.71l-2.7-5.391v-27.429Zm11.09 2.694h-3.82v3.822h3.82v-3.822Zm0 18.217h-3.82v3.82h3.82v-3.82Zm8.02-20.911 2.7-5.393h13.71l2.7 5.393v27.429l-2.7 5.391h-13.71l-2.7-5.391v-27.429Zm11.09 2.694h-3.82v3.822h3.82v-3.822Zm0 18.217h-3.82v3.82h3.82v-3.82Zm-80.54-67.374 2.7-5.393h13.72l2.69 5.393v27.426l-2.69 5.393h-13.72l-2.7-5.393v-27.426Z" style="fill:none;stroke:#0969da;stroke-width:1px;stroke-linecap:butt;stroke-linejoin:miter;stroke-miterlimit:4"/><path d="M1321.51 522.653h-3.83v3.822h3.83v-3.822Zm0 18.214h-3.83v3.822h3.83v-3.822Zm8.01-20.909 2.7-5.393h13.72l2.7 5.393v27.426l-2.7 5.393h-13.72l-2.7-5.393v-27.426Zm11.1 2.695h-3.82v3.822h3.82v-3.822Zm0 18.214h-3.82v3.822h3.82v-3.822Zm58.35 25.554 2.7-5.393h13.72l2.69 5.393v27.429l-2.69 5.391h-13.72l-2.7-5.391v-27.429Zm11.09 2.694h-3.82v3.822h3.82v-3.822Zm0 18.217h-3.82v3.82h3.82v-3.82Zm8.02-20.911 2.7-5.393h13.72l2.69 5.393v27.429l-2.69 5.391h-13.72l-2.7-5.391v-27.429Zm11.09 2.694h-3.82v3.822h3.82v-3.822Zm0 18.217h-3.82v3.82h3.82v-3.82Zm8.02-20.911 2.7-5.393h13.72l2.7 5.393v27.429l-2.7 5.391h-13.72l-2.7-5.391v-27.429Zm11.1 2.694h-3.83v3.822h3.83v-3.822Zm0 18.217h-3.83v3.82h3.83v-3.82Zm8.02-20.911 2.69-5.393h13.72l2.7 5.393v27.429l-2.7 5.391H1459l-2.69-5.391v-27.429Zm11.09 2.694h-3.82v3.822h3.82v-3.822Zm0 18.217h-3.82v3.82h3.82v-3.82Zm8.02-20.911 2.69-5.393h13.72l2.7 5.393v27.429l-2.7 5.391h-13.72l-2.69-5.391v-27.429Z" style="fill:none;stroke:#0969da;stroke-width:1px;stroke-linecap:butt;stroke-linejoin:miter;stroke-miterlimit:4"/><path d="M1486.51 569.115h-3.82v3.822h3.82v-3.822Zm0 18.217h-3.82v3.82h3.82v-3.82Zm8.02-20.911 2.7-5.393h13.71l2.7 5.393v27.429l-2.7 5.391h-13.71l-2.7-5.391v-27.429Zm11.09 2.694h-3.82v3.822h3.82v-3.822Zm0 18.217h-3.82v3.82h3.82v-3.82Zm8.02-20.911 2.7-5.393h13.72l2.69 5.393v27.429l-2.69 5.391h-13.72l-2.7-5.391v-27.429Zm11.09 2.694h-3.82v3.822h3.82v-3.822Zm0 18.217h-3.82v3.82h3.82v-3.82Zm8.02-20.911 2.7-5.393h13.72l2.69 5.393v27.429l-2.69 5.391h-13.72l-2.7-5.391v-27.429Zm11.09 2.694h-3.82v3.822h3.82v-3.822Zm0 18.217h-3.82v3.82h3.82v-3.82Zm8.02-20.911 2.7-5.393h13.72l2.7 5.393v27.429l-2.7 5.391h-13.72l-2.7-5.391v-27.429Zm11.1 2.694h-3.83v3.822h3.83v-3.822Zm0 18.217h-3.83v3.82h3.83v-3.82Zm8.02-20.911 2.69-5.393h13.72l2.7 5.393v27.429l-2.7 5.391h-13.72l-2.69-5.391v-27.429Zm11.09 2.694h-3.82v3.822h3.82v-3.822Zm0 18.217h-3.82v3.82h3.82v-3.82Zm8.02-20.911 2.69-5.393h13.72l2.7 5.393v27.429l-2.7 5.391h-13.72l-2.69-5.391v-27.429Z" style="fill:none;stroke:#0969da;stroke-width:1px;stroke-linecap:butt;stroke-linejoin:miter;stroke-miterlimit:4"/><path d="M1601.18 569.115h-3.82v3.822h3.82v-3.822Zm0 18.217h-3.82v3.82h3.82v-3.82Zm8.02-20.911 2.69-5.393h13.72l2.7 5.393v27.429l-2.7 5.391h-13.72l-2.69-5.391v-27.429Zm11.09 2.694h-3.82v3.822h3.82v-3.822Zm0 18.217h-3.82v3.82h3.82v-3.82Zm8.02-20.911 2.7-5.393h13.71l2.7 5.393v27.429l-2.7 5.391h-13.71l-2.7-5.391v-27.429Zm11.09 2.694h-3.82v3.822h3.82v-3.822Zm0 18.217h-3.82v3.82h3.82v-3.82Zm8.02-20.911 2.7-5.393h13.71l2.7 5.393v27.429l-2.7 5.391h-13.71l-2.7-5.391v-27.429Zm11.09 2.694h-3.82v3.822h3.82v-3.822Zm0 18.217h-3.82v3.82h3.82v-3.82Zm8.02-20.911 2.7-5.393h13.72l2.69 5.393v27.429l-2.69 5.391h-13.72l-2.7-5.391v-27.429Zm11.09 2.694h-3.82v3.822h3.82v-3.822Zm0 18.217h-3.82v3.82h3.82v-3.82Zm8.02-20.911 2.7-5.393h13.72l2.7 5.393v27.429l-2.7 5.391h-13.72l-2.7-5.391v-27.429Zm11.1 2.694h-3.83v3.822h3.83v-3.822Zm0 18.217h-3.83v3.82h3.83v-3.82Zm8.02-20.911 2.69-5.393h13.72l2.7 5.393v27.429l-2.7 5.391h-13.72l-2.69-5.391v-27.429Z" style="fill:none;stroke:#0969da;stroke-width:1px;stroke-linecap:butt;stroke-linejoin:miter;stroke-miterlimit:4"/><path d="M1715.85 569.115h-3.83v3.822h3.83v-3.822Zm0 18.217h-3.83v3.82h3.83v-3.82Zm8.02-20.911 2.69-5.393h13.72l2.7 5.393v27.429l-2.7 5.391h-13.72l-2.69-5.391v-27.429Zm11.09 2.694h-3.82v3.822h3.82v-3.822Zm0 18.217h-3.82v3.82h3.82v-3.82Zm-359.76-254.62h-60.98v60.968h60.98v-60.968Z" style="fill:none;stroke:#0969da;stroke-width:1px;stroke-linecap:butt;stroke-linejoin:miter;stroke-miterlimit:4"/><path d="M1369.22 396.475v-2.707m-3.05 2.707v-2.707m-3.06 2.707v-2.707m-3.05 2.707v-2.707m-3.06 2.707v-2.707m-3.05 2.707v-2.707m-3.06 2.707v-2.707m-3.05 2.707v-2.707m-3.06 2.707v-2.707m-3.05 2.707v-2.707m-3.06 2.707v-2.707m-3.05 2.707v-2.707m-3.06 2.707v-2.707m-3.05 2.707v-2.707m-3.06 2.707v-2.707m-3.05 2.707v-2.707m-3.06 2.707v-2.707m48.88-61.229v-2.707m-3.05 2.707v-2.707m-3.06 2.707v-2.707m-3.05 2.707v-2.707m-3.06 2.707v-2.707m-3.05 2.707v-2.707m-3.06 2.707v-2.707m-3.05 2.707v-2.707m-3.06 2.707v-2.707m-3.05 2.707v-2.707m-3.06 2.707v-2.707m-3.05 2.707v-2.707m-3.06 2.707v-2.707m-3.05 2.707v-2.707m-3.06 2.707v-2.707m-3.05 2.707v-2.707m-3.06 2.707v-2.707m-8.88 57.759h2.7m-2.7-3.053h2.7m-2.7-3.055h2.7m-2.7-3.056h2.7m-2.7-3.053h2.7m-2.7-3.057h2.7m-2.7-3.054h2.7m-2.7-3.055h2.7m-2.7-3.053h2.7m-2.7-3.058h2.7m-2.7-3.053h2.7m-2.7-3.055h2.7m-2.7-3.056h2.7m-2.7-3.053h2.7m-2.7-3.057h2.7m-2.7-3.053h2.7m-2.7-3.056h2.7m61.24 48.877h2.71m-2.71-3.053h2.71m-2.71-3.055h2.71m-2.71-3.056h2.71m-2.71-3.053h2.71m-2.71-3.057h2.71m-2.71-3.054h2.71m-2.71-3.055h2.71m-2.71-3.053h2.71m-2.71-3.058h2.71m-2.71-3.053h2.71m-2.71-3.055h2.71m-2.71-3.056h2.71M1375.51 348.103h2.9m-2.9-3.17h2.9m-2.9-3.165h2.9m-2.9-3.168h2.9" style="fill:none;stroke:#0969da;stroke-width:1px;stroke-linejoin:miter;stroke-miterlimit:4"/><path style="fill:none;stroke:#0969da;stroke-width:1px;stroke-linecap:butt;stroke-linejoin:miter;stroke-miterlimit:4" d="M1330.59 448.068h44.917v44.912h-44.917z"/><path d="M1368.26 494.751v-1.341 1.341Zm-3.85 0v-1.341 1.341Zm-3.85 0v-1.341 1.341Zm-3.85 0v-1.341 1.341Zm-3.84 0v-1.341 1.341Zm-3.85 0v-1.341 1.341Zm-3.85 0v-1.341 1.341Zm-3.85 0v-1.341 1.341Zm-3.84 0v-1.341 1.341Zm30.78-46.775v-1.341 1.341Zm-3.85 0v-1.341 1.341Zm-3.85 0v-1.341 1.341Zm-3.85 0v-1.341 1.341Zm-3.84 0v-1.341 1.341Zm-3.85 0v-1.341 1.341Zm-3.85 0v-1.341 1.341Zm-3.85 0v-1.341 1.341Zm-3.84 0v-1.341 1.341Zm-8.92 37.953h1.36-1.36Zm0-3.811h1.36-1.36Zm0-3.808h1.36-1.36Zm0-3.808h1.36-1.36Zm0-3.81h1.36-1.36Zm0-3.809h1.36-1.36Zm0-3.808h1.36-1.36Zm0-3.81h1.36-1.36Zm0-3.808h1.36-1.36Zm47.26 30.472h1.35-1.35Zm0-3.811h1.35-1.35Zm0-3.808h1.35-1.35Zm0-3.808h1.35-1.35Zm0-3.81h1.35-1.35Zm0-3.809h1.35-1.35Zm0-3.808h1.35-1.35Zm0-3.81h1.35-1.35Zm0-3.808h1.35-1.35Zm-77.11 39.125 5.43-5.373 13.02 12.886-5.42 5.372-13.03-12.885Zm11 12.776.96-.949-.96.949Zm-2.72-2.693.96-.948-.96.948Zm-2.72-2.692.96-.948-.96.948Zm-2.72-2.694.95-.949-.95.949Zm-2.72-2.694.95-.947-.95.947Zm17.27 4.454.95-.949-.95.949Zm-2.73-2.695.96-.946-.96.946Zm-2.72-2.692.96-.949-.96.949Zm-2.72-2.692.96-.949-.96.949Zm-2.72-2.695.96-.948-.96.948Zm-6.5-20.649 5.43-5.372 13.02 12.887-5.42 5.373-13.03-12.888Zm11 12.778.96-.949-.96.949Zm-2.72-2.692.96-.949-.96.949Zm-2.72-2.695.96-.946-.96.946Zm-2.72-2.692.95-.948-.95.948Zm-2.72-2.694.95-.949-.95.949Zm17.27 4.452.95-.947-.95.947Zm-2.73-2.692.96-.949-.96.949Zm-2.72-2.693.96-.948-.96.948Zm-2.72-2.694.96-.947-.96.947Zm-2.72-2.692.96-.949-.96.949Zm190.56-92.57h-77.67v109.662h77.67V372.732ZM1529.47 372.732h94.58a7.62 7.62 0 0 1 7.62 7.621v94.566a7.62 7.62 0 0 1-7.62 7.621h-94.58a7.62 7.62 0 0 1-7.62-7.621v-94.566a7.62 7.62 0 0 1 7.62-7.621Zm6.81 7.91h80.96c3.6 0 6.52 2.92 6.52 6.521v80.946a6.522 6.522 0 0 1-6.52 6.523h-80.96c-3.6 0-6.52-2.921-6.52-6.523v-80.946a6.521 6.521 0 0 1 6.52-6.521Zm5.01 5.811h70.94c3.16 0 5.72 2.56 5.72 5.717v70.934a5.716 5.716 0 0 1-5.72 5.715h-70.94a5.716 5.716 0 0 1-5.72-5.715V392.17a5.718 5.718 0 0 1 5.72-5.717Zm209.49 68.45h-83.71v98.925h83.71v-98.925Z" style="fill:none;stroke:#0969da;stroke-width:1px;stroke-linejoin:miter;stroke-miterlimit:4"/><path d="M1326.21 423.422h-9.27v14.886h9.27v-14.886Zm24.01-171.537h-14.87v9.28h14.87v-9.28Zm-58.1 45.156h-14.86v9.282h14.86v-9.282Zm0 13.54h-14.86v9.279h14.86v-9.279Zm48.9-5.81v11.999c0 1.707-1.38 3.09-3.09 3.09h-16.65a3.088 3.088 0 0 1-3.09-3.09v-11.999c0-1.705 1.38-3.09 3.09-3.09h16.65c1.71 0 3.09 1.385 3.09 3.09Zm9.2-69.696h-14.87v9.282h14.87v-9.282Zm-51.84 173.752h-32.99v52.331h32.99v-52.331Zm137.98 80.666h-14.87v9.282h14.87v-9.282Zm-96.12-66.071h-6.89v12.164h6.89v-12.164Zm19.89 0h-6.89v12.164h6.89v-12.164Zm-79.04-148.028h-6.9v12.164h6.9v-12.164Zm24.44-33.054h-6.9v12.165h6.9V242.34Zm44.19 181.082h-4.36v8.387h4.36v-8.387Zm-24.38-171.09h-4.36v8.387h4.36v-8.387Zm-35.66-54.9h-4.36v8.387h4.36v-8.387Zm99.25 102.239h-4.36v8.389h4.36v-8.389Zm0-14.42h-4.36v8.385h4.36v-8.385Zm-24.84 14.42h-4.36v8.389h4.36v-8.389Zm0-14.42h-4.36v8.385h4.36v-8.385Zm-82.47-87.819h-4.36v8.387h4.36v-8.387Zm-8.06 0h-4.36v8.387h4.36v-8.387ZM1325.14 236.548h-4.34v8.364h4.34v-8.364Zm-55.41 20.957h-4.34v8.362h4.34v-8.362Zm0-16.758h-4.34v8.364h4.34v-8.364Zm98.32 186.905h-4.34v8.362h4.34v-8.362Zm214.66-79.066h-4.34v8.36h4.34v-8.36Zm-173.94 55.958h-9.23v14.84h9.23v-14.84Zm-87.38 40.621h-8.34v4.352h8.34v-4.352Zm69.59-66.919h-4.74v2.373h4.74v-2.373Zm0-4.618h-4.74v2.373h4.74v-2.373Zm-89-4.171h-4.73v2.373h4.73v-2.373Zm266.83-26.643h-2.37v4.746h2.37v-4.746Zm-266.83 22.023h-4.73v2.373h4.73v-2.373Zm0-23.105h-4.73v2.373h4.73v-2.373Zm0-4.62h-4.73v2.375h4.73v-2.375Zm0-9.013h-4.73v2.373h4.73v-2.373Zm89 40.909h-4.74v2.373h4.74v-2.373Zm0-4.62h-4.74v2.375h4.74v-2.375Zm0-4.618h-4.74v2.373h4.74v-2.373Zm0-4.617h-4.74v2.373h4.74v-2.373Zm15.25-32.238h-22.69v14.197h22.69v-14.197Z" style="fill:none;stroke:#0969da;stroke-width:1px;stroke-linecap:butt;stroke-linejoin:miter;stroke-miterlimit:4"/><path d="M1406.28 335.611h1.35m-1.35-3.7h1.35m-1.35-3.701h1.35m-1.35-3.701h1.35m-25.43 11.102h1.35m-1.35-3.7h1.35m-1.35-3.701h1.35m-1.35-3.701h1.35" style="fill:none;stroke:#0969da;stroke-width:1px;stroke-linejoin:miter;stroke-miterlimit:4"/><path style="fill:none;stroke:#0969da;stroke-width:1px;stroke-linecap:butt;stroke-linejoin:miter;stroke-miterlimit:4" d="M1400.14 284.358h14.489v23.18h-14.489z"/><path style="fill:none;stroke:#0969da;stroke-width:.8px;stroke-linecap:butt;stroke-linejoin:miter;stroke-miterlimit:4" d="M1288.57 272.767h14.489v17.385h-14.489z"/><path d="M1286.24 211.919h-10.71v22.142h10.71v-22.142Zm61.74 55.445h-8.69v22.789h8.69v-22.789Z" style="fill:none;stroke:#0969da;stroke-width:1px;stroke-linecap:butt;stroke-linejoin:miter;stroke-miterlimit:4"/><path d="M1402.08 307.369v1.346m3.7-1.346v1.346m3.7-1.346v1.346m3.7-1.346v1.346m-11.1-25.423v1.348m3.7-1.348v1.348m3.7-1.348v1.348m3.7-1.348v1.348" style="fill:none;stroke:#0969da;stroke-width:1px;stroke-linejoin:miter;stroke-miterlimit:4"/><path d="M1783.25 476.651h-22.75v-23.04h10.8V328.752h-10.8v-23.324h22.75v34.113l8.11 8.089v87.103l-8.11 8.089v33.829Zm-17.19-147.899h-5.56v124.859h5.56V328.752Zm-262.62 175.562h-8.38v4.35h8.38v-4.35Zm157.41 42.264h-8.38v4.352h8.38v-4.352Zm0-7.529h-8.38v4.352h8.38v-4.352Zm-157.41-41.782h-4.76v2.374h4.76v-2.374Zm-50.73-9.66h-4.75v2.373h4.75v-2.373Zm12.5 0h-4.76v2.373h4.76v-2.373Zm169.09 0h-4.76v2.373h4.76v-2.373Zm15.45-197.024h-9.27v14.845h9.27v-14.845Zm15.93 0h-9.27v14.845h9.27v-14.845Zm50.05 9.528h-9.27v14.843h9.27v-14.843Zm64.07-60.545h-9.28v14.843h9.28v-14.843Zm-14.66-2.965h-15.84v20.775h15.84v-20.775Zm0 47.255h-14.97v18.928h14.97v-18.928Zm14.66 3.117h-10.04v12.693h10.04v-12.693Zm-80.63-50.372h-15.84v20.775h15.84v-20.775Zm-40.47-11.643h-24.72v32.418h24.72v-32.418Zm110.01 47.525h-12.16v6.882h12.16v-6.882Zm0-10.603h-12.16v6.882h12.16v-6.882ZM1741.29 298.282h-11.98v6.814h11.98v-6.814Zm-50.1-24.551h-11.98v6.813h11.98v-6.813Zm0-10.498h-11.98v6.814h11.98v-6.814Zm-10.4-19.132h-6.8v12.009h6.8v-12.009Zm113.46-11.899h-6.8v12.01h6.8v-12.01Zm0 28.433h-6.8v12.01h6.8v-12.01Zm-86.45-25.644h-4.3v8.282h4.3v-8.282Zm12.62 1.986h-8.26v4.309h8.26v-4.309Zm14.88 0h-8.26v4.309h8.26v-4.309Zm7.7 15.336h-37.77v37.847H1743v-37.847Zm5.24 58.729h-19.9v12.432h19.9v-12.432Z" style="fill:none;stroke:#0969da;stroke-width:1px;stroke-linecap:butt;stroke-linejoin:miter;stroke-miterlimit:4"/><path d="M1737.18 291.276v-1.316m-3.74 1.316v-1.316m-3.73 1.316v-1.316m-3.74 1.316v-1.316m-3.74 1.316v-1.316m-3.74 1.316v-1.316m-3.74 1.316v-1.316m-3.74 1.316v-1.316m26.17-37.294v-1.314m-3.74 1.314v-1.314m-3.73 1.314v-1.314m-3.74 1.314v-1.314m-3.74 1.314v-1.314m-3.74 1.314v-1.314m-3.74 1.314v-1.314m-3.74 1.314v-1.314m-6.88 33.044h1.32m-1.32-3.738h1.32m-1.32-3.737h1.32m-1.32-3.739h1.32m-1.32-3.738h1.32m-1.32-3.737h1.32m-1.32-3.739h1.32m-1.32-3.738h1.32m37.3 26.166h1.31m-1.31-3.738h1.31m-1.31-3.737h1.31m-1.31-3.739h1.31m-1.31-3.738h1.31m-1.31-3.737h1.31m-1.31-3.739h1.31m-1.31-3.738h1.31" style="fill:none;stroke:#0969da;stroke-width:1px;stroke-linejoin:miter;stroke-miterlimit:4"/><path d="M1432.66 184.492h22.66v23.075h-10.76v125.05h10.76v23.36h-22.66v-34.166l-8.08-8.101v-87.236l8.08-8.101v-33.881Zm22.66 23.075h-5.54v125.05h5.54v-125.05Zm-166.09 118.384h-8.35v4.359h8.35v-4.359Zm6.33-79.336h-22.06v10.812h22.06v-10.812Zm85.87 52.685h-14.08v8.379h14.08V299.3Zm-.56-14.391h-2.37v4.756h2.37v-4.756Zm-5.29 0h-2.37v4.756h2.37v-4.756Zm-5.07 0h-2.37v4.756h2.37v-4.756Zm190.62-64.189h-8.71v8.737h8.71v-8.737Zm-15.89 0h-8.71v8.737h8.71v-8.737Zm16.93-31.399h-10.78v22.135h10.78v-22.135Zm-413.3 41.54 8.91 4.569c.54.277 1.14.422 1.75.422h6.85c.85 0 1.54-.693 1.54-1.548v-1.849c0-.853-.69-1.546-1.54-1.546h-5.34c-.5 0-.99-.097-1.45-.285l-9.47-3.867a3.893 3.893 0 0 0-1.46-.285h-12.7c-.85 0-1.54-.693-1.54-1.548v-8.425c0-.855.69-1.546 1.54-1.546h12.7c.5 0 .99-.096 1.46-.285l9.47-3.869a3.86 3.86 0 0 1 1.45-.283h5.34c.85 0 1.54-.692 1.54-1.548v-1.849c0-.855-.69-1.546-1.54-1.546h-6.85c-.61 0-1.21.145-1.75.422l-8.91 4.567a3.86 3.86 0 0 1-1.75.424h-17.05a3.024 3.024 0 0 0-3.02 3.03v13.393c0 1.673 1.35 3.03 3.02 3.03h17.05c.6 0 1.2.145 1.75.422Zm0 48.599 8.91 4.57c.54.277 1.14.421 1.75.421h6.85c.85 0 1.54-.692 1.54-1.548v-1.849c0-.853-.69-1.546-1.54-1.546h-5.34c-.5 0-.99-.096-1.45-.285l-9.47-3.867a3.893 3.893 0 0 0-1.46-.285h-12.7c-.85 0-1.54-.693-1.54-1.548v-8.424c0-.856.69-1.546 1.54-1.546h12.7c.5 0 .99-.097 1.46-.285l9.47-3.869a3.84 3.84 0 0 1 1.45-.283h5.34c.85 0 1.54-.693 1.54-1.548v-1.85c0-.853-.69-1.545-1.54-1.545h-6.85c-.61 0-1.21.144-1.75.421l-8.91 4.568c-.55.279-1.15.423-1.75.423h-17.05a3.025 3.025 0 0 0-3.02 3.03v13.394a3.024 3.024 0 0 0 3.02 3.029h17.05c.6 0 1.2.145 1.75.422ZM1255.36 332.474h-132.5c-1.23 0-2.1-2.092-2.53-3.419a1.535 1.535 0 0 0-1.46-1.072h-1.09c-.92 0-1.64.833-1.53 1.755.78 6.412 5.8 6.627 5.8 9.448 0 2.096-2.78 2.674-4.52 2.831a1.52 1.52 0 0 0-1.38 1.528v78.348c0 .791.59 1.453 1.38 1.524 1.74.156 4.52.733 4.52 2.831 0 2.822-5.03 3.035-5.8 9.456-.11.918.6 1.747 1.52 1.747h1.1c.67 0 1.25-.43 1.46-1.066.43-1.327 1.3-3.426 2.53-3.426h132.5V332.474Zm-131.69 80.412v-13.293c0-.783.58-1.442 1.36-1.534l42.62-5.035c.93-.111 1.74.614 1.74 1.546v1.262c0 .801-.61 1.474-1.41 1.55l-33.5 3.267a3.085 3.085 0 0 0-2.78 3.076v5.029c0 1.59 1.2 2.921 2.78 3.076l33.5 3.267c.8.076 1.41.747 1.41 1.55v1.262c0 .932-.81 1.657-1.74 1.548l-42.62-5.037a1.54 1.54 0 0 1-1.36-1.534Zm0-46.937v-13.293c0-.785.58-1.444 1.36-1.534l42.62-5.037c.93-.111 1.74.614 1.74 1.548v1.263a1.56 1.56 0 0 1-1.41 1.55l-33.5 3.266a3.081 3.081 0 0 0-2.78 3.074v5.031c0 1.59 1.2 2.92 2.78 3.074l33.5 3.267c.8.078 1.41.749 1.41 1.55v1.263c0 .931-.81 1.656-1.74 1.548l-42.62-5.038a1.54 1.54 0 0 1-1.36-1.532Zm45.72 13.713v6.11c0 .518-.39.955-.9 1.018l-28.25 3.336a1.026 1.026 0 0 1-1.15-1.026v-.837c0-.53.4-.976.93-1.026l22.2-2.166a2.047 2.047 0 0 0 1.85-2.038v-.632c0-1.054-.8-1.936-1.85-2.038l-22.2-2.165a1.03 1.03 0 0 1-.93-1.028v-.837c0-.618.53-1.096 1.15-1.026l28.25 3.339c.51.06.9.498.9 1.016Z" style="fill:none;stroke:#0969da;stroke-width:1px;stroke-linecap:butt;stroke-linejoin:miter;stroke-miterlimit:4"/><path d="M1446.51 323.676h2.3m-2.3-7.63h2.3m-2.3-7.628h2.3m-2.3-7.631h2.3m-2.3-7.628h2.3m-2.3-7.63h2.3m-2.3-7.628h2.3m-2.3-7.628h2.3m-2.3-7.629h2.3m-2.3-7.682h2.3m-2.3-7.628h2.3m-2.3-7.63h2.3m-2.3-7.628h2.3m-2.3-7.63h2.3m-2.3-7.629h2.3m317.06 228.353h2.3m-2.3-7.63h2.3m-2.3-7.628h2.3m-2.3-7.63h2.3m-2.3-7.628h2.3m-2.3-7.628h2.3m-2.3-7.631h2.3m-2.3-7.628h2.3m-2.3-7.63h2.3m-2.3-7.68h2.3m-2.3-7.628h2.3m-2.3-7.63h2.3m-2.3-7.629h2.3m-2.3-7.628h2.3m-2.3-7.63h2.3" style="fill:none;stroke:#0969da;stroke-width:1px;stroke-linejoin:miter;stroke-miterlimit:4"/><path d="M1520.15 229.304v-59.042c0-.595 1.01-1.018 1.65-1.228a.733.733 0 0 0 .51-.706v-.53c0-.45-.4-.794-.84-.742-3.08.377-3.19 2.813-4.54 2.813-1.01 0-1.29-1.347-1.36-2.19a.744.744 0 0 0-.74-.671h-37.66c-.38 0-.7.286-.74.669-.07.845-.35 2.192-1.35 2.192-1.36 0-1.46-2.438-4.55-2.813a.75.75 0 0 0-.84.74v.534c0 .323.21.605.51.704.64.208 1.65.631 1.65 1.228v59.042h48.3Zm-38.65-51.287h6.39c.38 0 .69.285.74.662l2.42 20.672c.05.447-.3.841-.75.841h-.6a.754.754 0 0 1-.75-.68l-1.57-16.252a1.483 1.483 0 0 0-1.48-1.349h-2.41c-.77 0-1.41.583-1.48 1.349l-1.58 16.252a.738.738 0 0 1-.74.68h-.61a.75.75 0 0 1-.74-.841l2.42-20.672a.742.742 0 0 1 .74-.662Zm22.56 0h6.39c.38 0 .7.285.74.662l2.42 20.672a.75.75 0 0 1-.74.841h-.61a.745.745 0 0 1-.74-.68l-1.57-16.252a1.497 1.497 0 0 0-1.48-1.349h-2.42c-.77 0-1.41.583-1.48 1.349l-1.57 16.252a.752.752 0 0 1-.74.68h-.61c-.45 0-.8-.394-.75-.841l2.43-20.672a.74.74 0 0 1 .73-.662Zm120.18 51.287v-59.042c0-.595 1-1.018 1.64-1.228a.742.742 0 0 0 .52-.706v-.53c0-.45-.4-.794-.85-.742-3.08.377-3.18 2.813-4.54 2.813-1.01 0-1.28-1.347-1.36-2.19a.73.73 0 0 0-.74-.671h-37.66c-.38 0-.7.286-.73.669-.08.845-.35 2.192-1.36 2.192-1.36 0-1.46-2.438-4.55-2.813a.75.75 0 0 0-.84.74v.534c0 .323.21.605.52.704.63.208 1.64.631 1.64 1.228v59.042h48.31Zm-38.66-51.287h6.39c.38 0 .69.285.74.662l2.42 20.672a.75.75 0 0 1-.74.841h-.61a.754.754 0 0 1-.75-.68l-1.57-16.252a1.48 1.48 0 0 0-1.47-1.349h-2.42c-.77 0-1.41.583-1.48 1.349l-1.57 16.252a.754.754 0 0 1-.75.68h-.61a.755.755 0 0 1-.74-.841l2.42-20.672a.75.75 0 0 1 .74-.662Zm22.56 0h6.4c.37 0 .69.285.73.662l2.42 20.672a.744.744 0 0 1-.74.841h-.61a.745.745 0 0 1-.74-.68l-1.57-16.252a1.497 1.497 0 0 0-1.48-1.349h-2.42c-.76 0-1.4.583-1.48 1.349l-1.57 16.252a.745.745 0 0 1-.74.68h-.61c-.45 0-.8-.394-.74-.841l2.42-20.672a.74.74 0 0 1 .73-.662Zm139.75-11.009h-67.6v56.854h67.6v-56.854Zm-54.11 43.572v.147c0 .817.65 1.48 1.47 1.48h4.54c.82 0 1.47.662 1.47 1.48v.158c0 .816-.65 1.478-1.47 1.478h-4.54c-.82 0-1.47.665-1.47 1.482v.151c0 .817.65 1.48 1.47 1.48h7.76c.67 0 1.21-.544 1.21-1.218v-6.9c0-.673-.54-1.218-1.21-1.218h-7.76c-.82 0-1.47.664-1.47 1.48Z" style="fill:none;stroke:#0969da;stroke-width:1px;stroke-linecap:butt;stroke-linejoin:miter;stroke-miterlimit:4"/><path d="M1733.4 216.336v-.137c0-.76-.64-1.378-1.43-1.378h-4.41c-.79 0-1.43-.617-1.43-1.378v-.146c0-.761.64-1.378 1.43-1.378h4.41c.79 0 1.43-.618 1.43-1.378v-.141c0-.761-.64-1.378-1.43-1.378h-7.54c-.65 0-1.18.507-1.18 1.134v6.424c0 .627.53 1.134 1.18 1.134h7.54c.79 0 1.43-.617 1.43-1.378Z" style="fill:none;stroke:#0969da;stroke-width:1px;stroke-linecap:butt;stroke-linejoin:miter;stroke-miterlimit:4"/><path d="M1675.22 288.704h22.18l2.67 2.676v19.276l-2.67 2.677h-22.18l-2.68-2.677V291.38l2.68-2.676Z" style="fill:none;stroke:#0969da;stroke-width:.9px;stroke-linecap:butt;stroke-linejoin:miter;stroke-miterlimit:4"/><path d="M1408.67 162.661h-44.59v19.091h44.59v-19.091Zm4.51 19.091h-53.61v92.464h53.61v-92.464Zm-53.61 27.562h5.41c.6 0 1.04-.467 1.13-1.056.73-4.933 6.57-4.582 6.58 1.056l7.36 38.36v10.205h12.65v-10.205l7.37-38.36c0-5.638 5.84-5.989 6.57-1.056.09.589.53 1.056 1.13 1.056h5.41-53.61Zm37.61 64.902h-21.61v-19.351a3.074 3.074 0 0 0-3.07-3.082h-2.58c-.91 0-1.61-.799-1.5-1.705l2.44-20.01c.22-1.599.4-2.593 1.53-2.593 1.24.12 1.14 1.838 1.15 2.984 0 1.11-.05 6.286-.08 8.776-.01.87.28 1.716.83 2.399l5.76 7.276v8.969h12.65v-8.969l5.77-7.276c.54-.683.83-1.529.82-2.399-.03-2.49-.08-7.666-.08-8.776.01-1.146-.09-2.864 1.15-2.984 1.13 0 1.31.994 1.53 2.593l2.44 20.01c.11.906-.59 1.705-1.5 1.705h-2.58a3.08 3.08 0 0 0-3.07 3.082v19.351Zm-32.25 0v-64.902 64.902Zm42.89 0v-64.902 64.902Z" style="fill:none;stroke:#0969da;stroke-width:1px;stroke-linecap:butt;stroke-linejoin:miter;stroke-miterlimit:4"/><g id="concept_svg__Volume-knob"><path d="M492.972 161.223c19.554 11.29 26.264 36.331 14.974 55.886-11.289 19.554-36.331 26.264-55.886 14.974-19.554-11.289-26.264-36.331-14.974-55.886 11.29-19.554 36.331-26.264 55.886-14.974Z" style="fill:none;stroke:#0969da;stroke-width:1px"/><path d="m490.499 159.904-12.293 21.292 4.851 2.801 12.293-21.292" style="fill:none;stroke:#0969da;stroke-width:1px"/></g><g id="concept_svg___1.4--socket"><circle cx="619.546" cy="204.173" r="26.783" style="fill:none;stroke:#0969da;stroke-width:1px"/><circle cx="619.546" cy="204.173" r="31.833" style="fill:none;stroke:#0969da;stroke-width:1px"/><circle cx="619.546" cy="204.173" r="37.584" style="fill:none;stroke:#0969da;stroke-width:1px"/><circle cx="619.546" cy="204.173" r="43.492" style="fill:none;stroke:#0969da;stroke-width:1px"/><circle cx="619.546" cy="204.173" r="63.991" style="fill:none;stroke:#0969da;stroke-width:1px"/><circle cx="619.546" cy="204.173" r="66.652" style="fill:none;stroke:#0969da;stroke-width:1px"/><circle cx="619.546" cy="204.173" r="57.448" style="fill:none;stroke:#0969da;stroke-width:1px"/><path d="M655.377 257.186c-10.225 6.929-22.559 10.978-35.831 10.978-6.76 0-13.277-1.05-19.396-2.997l55.227-7.981Zm-98.349-39.31c4.223 19.327 17.19 35.398 34.538 43.854l-34.538-43.854Zm126.35-18.243c.105 1.501.159 3.014.159 4.54 0 18.701-8.039 35.539-20.845 47.241l20.686-51.781Zm-106.979-42.701-20.686 51.78a64.98 64.98 0 0 1-.159-4.539c0-18.701 8.039-35.539 20.845-47.241Zm71.126-10.316 34.539 43.854c-4.224-19.327-17.191-35.398-34.539-43.854Zm-63.811 4.544c10.225-6.929 22.559-10.978 35.832-10.978 6.759 0 13.276 1.05 19.395 2.997l-55.227 7.981Z" style="fill:none;stroke:#0969da;stroke-width:1px"/></g><g id="concept_svg___1.4--socket1"><circle cx="619.546" cy="709.173" r="26.783" style="fill:none;stroke:#0969da;stroke-width:1px"/><circle cx="619.546" cy="709.173" r="31.833" style="fill:none;stroke:#0969da;stroke-width:1px"/><circle cx="619.546" cy="709.173" r="37.584" style="fill:none;stroke:#0969da;stroke-width:1px"/><circle cx="619.546" cy="709.173" r="43.492" style="fill:none;stroke:#0969da;stroke-width:1px"/><circle cx="619.546" cy="709.173" r="63.991" style="fill:none;stroke:#0969da;stroke-width:1px"/><circle cx="619.546" cy="709.173" r="66.652" style="fill:none;stroke:#0969da;stroke-width:1px"/><circle cx="619.546" cy="709.173" r="57.448" style="fill:none;stroke:#0969da;stroke-width:1px"/><path d="M655.377 762.186c-10.225 6.929-22.559 10.978-35.831 10.978-6.76 0-13.277-1.05-19.396-2.997l55.227-7.981Zm-98.349-39.31c4.223 19.327 17.19 35.398 34.538 43.854l-34.538-43.854Zm126.35-18.243c.105 1.501.159 3.014.159 4.54 0 18.701-8.039 35.539-20.845 47.241l20.686-51.781Zm-106.979-42.701-20.686 51.78a64.98 64.98 0 0 1-.159-4.539c0-18.701 8.039-35.539 20.845-47.241Zm71.126-10.316 34.539 43.854c-4.224-19.327-17.191-35.398-34.539-43.854Zm-63.811 4.544c10.225-6.929 22.559-10.978 35.832-10.978 6.759 0 13.276 1.05 19.395 2.997l-55.227 7.981Z" style="fill:none;stroke:#0969da;stroke-width:1px"/></g><g id="concept_svg___1.4--socket2"><circle cx="619.546" cy="869.173" r="26.783" style="fill:none;stroke:#0969da;stroke-width:1px"/><circle cx="619.546" cy="869.173" r="31.833" style="fill:none;stroke:#0969da;stroke-width:1px"/><circle cx="619.546" cy="869.173" r="37.584" style="fill:none;stroke:#0969da;stroke-width:1px"/><circle cx="619.546" cy="869.173" r="43.492" style="fill:none;stroke:#0969da;stroke-width:1px"/><circle cx="619.546" cy="869.173" r="63.991" style="fill:none;stroke:#0969da;stroke-width:1px"/><circle cx="619.546" cy="869.173" r="66.652" style="fill:none;stroke:#0969da;stroke-width:1px"/><circle cx="619.546" cy="869.173" r="57.448" style="fill:none;stroke:#0969da;stroke-width:1px"/><path d="M655.377 922.186c-10.225 6.929-22.559 10.978-35.831 10.978-6.76 0-13.277-1.05-19.396-2.997l55.227-7.981Zm-98.349-39.31c4.223 19.327 17.19 35.398 34.538 43.854l-34.538-43.854Zm126.35-18.243c.105 1.501.159 3.014.159 4.54 0 18.701-8.039 35.539-20.845 47.241l20.686-51.781Zm-106.979-42.701-20.686 51.78a64.98 64.98 0 0 1-.159-4.539c0-18.701 8.039-35.539 20.845-47.241Zm71.126-10.316 34.539 43.854c-4.224-19.327-17.191-35.398-34.539-43.854Zm-63.811 4.544c10.225-6.929 22.559-10.978 35.832-10.978 6.759 0 13.276 1.05 19.395 2.997l-55.227 7.981Z" style="fill:none;stroke:#0969da;stroke-width:1px"/></g><g id="concept_svg__SPDIF"><path d="M684.762 421.939c0-1.103-.896-2-2-2h-76.17c-1.104 0-2 .897-2 2v75.472c0 1.103.896 2 2 2h76.17c1.104 0 2-.897 2-2v-75.472Z" style="fill:none;stroke:#0969da;stroke-width:1px"/><path d="M678.349 450.451a2 2 0 0 0-2-2h-39.832a2 2 0 0 0-2 2v18.448a2 2 0 0 0 2 2h39.832a2 2 0 0 0 2-2v-18.448ZM609.085 432.222c0-.929.754-1.682 1.682-1.682M652.754 429.698a6.122 6.122 0 0 1 6.119 6.12M658.873 435.818h5.936c5.812 0 10.531 4.718 10.531 10.53M610.767 430.54l7.534.841c0-.929.754-1.683 1.682-1.683h32.771M609.085 486.8c0 .928.754 1.682 1.682 1.682M652.754 489.323a6.122 6.122 0 0 0 6.119-6.119" style="fill:none;stroke:#0969da;stroke-width:1px"/><path d="M658.873 483.204h5.936c5.812 0 10.531-4.719 10.531-10.53v-26.326M610.767 488.482l7.534-.841c0 .928.754 1.682 1.682 1.682h32.771M617.461 433.438v51.878" style="fill:none;stroke:#0969da;stroke-width:1px"/></g><g id="concept_svg__SPDIF1"><path d="M684.762 536.813a2 2 0 0 0-2-2h-76.17a2 2 0 0 0-2 2v75.471a2 2 0 0 0 2 2h76.17a2 2 0 0 0 2-2v-75.471Z" style="fill:none;stroke:#0969da;stroke-width:1px"/><path d="M678.349 565.324a2 2 0 0 0-2-2h-39.832a2 2 0 0 0-2 2v18.449a2 2 0 0 0 2 2h39.832a2 2 0 0 0 2-2v-18.449ZM609.085 547.096c0-.929.754-1.683 1.682-1.683M652.754 544.572a6.122 6.122 0 0 1 6.119 6.12M658.873 550.692h5.936c5.812 0 10.531 4.718 10.531 10.53M610.767 545.413l7.534.841c0-.928.754-1.682 1.682-1.682h32.771M609.085 601.673c0 .929.754 1.683 1.682 1.683M652.754 604.197a6.122 6.122 0 0 0 6.119-6.12" style="fill:none;stroke:#0969da;stroke-width:1px"/><path d="M658.873 598.077h5.936c5.812 0 10.531-4.718 10.531-10.53v-26.325M610.767 603.356l7.534-.842c0 .929.754 1.683 1.682 1.683h32.771M617.461 548.312v51.877" style="fill:none;stroke:#0969da;stroke-width:1px"/></g><circle id="concept_svg__LED" cx="636.009" cy="401.247" r="8.136" style="fill:none;stroke:#0969da;stroke-width:1px"/><circle id="concept_svg__LED1" cx="665.728" cy="401.247" r="8.136" style="fill:none;stroke:#0969da;stroke-width:1px"/><circle id="concept_svg__LED2" cx="636.009" cy="517.56" r="8.136" style="fill:none;stroke:#0969da;stroke-width:1px"/><circle id="concept_svg__LED3" cx="665.728" cy="517.56" r="8.136" style="fill:none;stroke:#0969da;stroke-width:1px"/><g id="concept_svg___3.5mm-socket"><path d="m205.494 144.888 33.201 32.678-11.891 44.377-45.092 11.699-33.201-32.677 11.891-44.378 45.092-11.699Z" style="fill:none;stroke:#0969da;stroke-width:1px"/><circle cx="193.603" cy="189.265" r="14.691" style="fill:none;stroke:#0969da;stroke-width:1px"/><circle cx="193.603" cy="189.265" r="22.391" style="fill:none;stroke:#0969da;stroke-width:1px"/><circle cx="193.603" cy="189.265" r="30.395" style="fill:none;stroke:#0969da;stroke-width:1px"/><circle cx="193.603" cy="189.265" r="33.04" style="fill:none;stroke:#0969da;stroke-width:1px"/></g><g id="concept_svg___3.5mm-socket1"><path d="m205.494 245.116 33.201 32.678-11.891 44.377-45.092 11.699-33.201-32.678 11.891-44.377 45.092-11.699Z" style="fill:none;stroke:#0969da;stroke-width:1px"/><circle cx="193.603" cy="289.493" r="14.691" style="fill:none;stroke:#0969da;stroke-width:1px"/><circle cx="193.603" cy="289.493" r="22.391" style="fill:none;stroke:#0969da;stroke-width:1px"/><circle cx="193.603" cy="289.493" r="30.395" style="fill:none;stroke:#0969da;stroke-width:1px"/><circle cx="193.603" cy="289.493" r="33.04" style="fill:none;stroke:#0969da;stroke-width:1px"/></g><g id="concept_svg___3.5mm-socket2"><path d="m205.494 345.344 33.201 32.677-11.891 44.378-45.092 11.699-33.201-32.678 11.891-44.377 45.092-11.699Z" style="fill:none;stroke:#0969da;stroke-width:1px"/><circle cx="193.603" cy="389.721" r="14.691" style="fill:none;stroke:#0969da;stroke-width:1px"/><circle cx="193.603" cy="389.721" r="22.391" style="fill:none;stroke:#0969da;stroke-width:1px"/><circle cx="193.603" cy="389.721" r="30.395" style="fill:none;stroke:#0969da;stroke-width:1px"/><circle cx="193.603" cy="389.721" r="33.04" style="fill:none;stroke:#0969da;stroke-width:1px"/></g><g id="concept_svg___3.5mm-socket3"><path d="m205.494 445.571 33.201 32.678-11.891 44.377-45.092 11.7-33.201-32.678 11.891-44.377 45.092-11.7Z" style="fill:none;stroke:#0969da;stroke-width:1px"/><circle cx="193.603" cy="489.949" r="14.691" style="fill:none;stroke:#0969da;stroke-width:1px"/><circle cx="193.603" cy="489.949" r="22.391" style="fill:none;stroke:#0969da;stroke-width:1px"/><circle cx="193.603" cy="489.949" r="30.395" style="fill:none;stroke:#0969da;stroke-width:1px"/><circle cx="193.603" cy="489.949" r="33.04" style="fill:none;stroke:#0969da;stroke-width:1px"/></g><g id="concept_svg___3.5mm-socket4"><path d="m205.494 545.799 33.201 32.678-11.891 44.377-45.092 11.699-33.201-32.677 11.891-44.378 45.092-11.699Z" style="fill:none;stroke:#0969da;stroke-width:1px"/><circle cx="193.603" cy="590.176" r="14.691" style="fill:none;stroke:#0969da;stroke-width:1px"/><circle cx="193.603" cy="590.176" r="22.391" style="fill:none;stroke:#0969da;stroke-width:1px"/><circle cx="193.603" cy="590.176" r="30.395" style="fill:none;stroke:#0969da;stroke-width:1px"/><circle cx="193.603" cy="590.176" r="33.04" style="fill:none;stroke:#0969da;stroke-width:1px"/></g><g id="concept_svg___3.5mm-socket5"><path d="m205.494 646.027 33.201 32.678-11.891 44.377-45.092 11.699-33.201-32.678 11.891-44.377 45.092-11.699Z" style="fill:none;stroke:#0969da;stroke-width:1px"/><circle cx="193.603" cy="690.404" r="14.691" style="fill:none;stroke:#0969da;stroke-width:1px"/><circle cx="193.603" cy="690.404" r="22.391" style="fill:none;stroke:#0969da;stroke-width:1px"/><circle cx="193.603" cy="690.404" r="30.395" style="fill:none;stroke:#0969da;stroke-width:1px"/><circle cx="193.603" cy="690.404" r="33.04" style="fill:none;stroke:#0969da;stroke-width:1px"/></g><g id="concept_svg___3.5mm-socket6"><path d="m205.494 746.255 33.201 32.678-11.891 44.377-45.092 11.699-33.201-32.678 11.891-44.377 45.092-11.699Z" style="fill:none;stroke:#0969da;stroke-width:1px"/><circle cx="193.603" cy="790.632" r="14.691" style="fill:none;stroke:#0969da;stroke-width:1px"/><circle cx="193.603" cy="790.632" r="22.391" style="fill:none;stroke:#0969da;stroke-width:1px"/><circle cx="193.603" cy="790.632" r="30.395" style="fill:none;stroke:#0969da;stroke-width:1px"/><circle cx="193.603" cy="790.632" r="33.04" style="fill:none;stroke:#0969da;stroke-width:1px"/></g><g id="concept_svg___3.5mm-socket7"><path d="m205.494 846.482 33.201 32.678-11.891 44.377-45.092 11.7-33.201-32.678 11.891-44.377 45.092-11.7Z" style="fill:none;stroke:#0969da;stroke-width:1px"/><circle cx="193.603" cy="890.86" r="14.691" style="fill:none;stroke:#0969da;stroke-width:1px"/><circle cx="193.603" cy="890.86" r="22.391" style="fill:none;stroke:#0969da;stroke-width:1px"/><circle cx="193.603" cy="890.86" r="30.395" style="fill:none;stroke:#0969da;stroke-width:1px"/><circle cx="193.603" cy="890.86" r="33.04" style="fill:none;stroke:#0969da;stroke-width:1px"/></g><g id="concept_svg___3.5mm-socket8"><path d="m343.884 144.888 33.201 32.678-11.89 44.377-45.092 11.699-33.202-32.677 11.891-44.378 45.092-11.699Z" style="fill:none;stroke:#0969da;stroke-width:1px"/><circle cx="331.993" cy="189.265" r="14.691" style="fill:none;stroke:#0969da;stroke-width:1px"/><circle cx="331.993" cy="189.265" r="22.391" style="fill:none;stroke:#0969da;stroke-width:1px"/><circle cx="331.993" cy="189.265" r="30.395" style="fill:none;stroke:#0969da;stroke-width:1px"/><circle cx="331.993" cy="189.265" r="33.04" style="fill:none;stroke:#0969da;stroke-width:1px"/></g><g id="concept_svg___3.5mm-socket9"><path d="m343.884 245.116 33.201 32.678-11.89 44.377-45.092 11.699-33.202-32.678 11.891-44.377 45.092-11.699Z" style="fill:none;stroke:#0969da;stroke-width:1px"/><circle cx="331.993" cy="289.493" r="14.691" style="fill:none;stroke:#0969da;stroke-width:1px"/><circle cx="331.993" cy="289.493" r="22.391" style="fill:none;stroke:#0969da;stroke-width:1px"/><circle cx="331.993" cy="289.493" r="30.395" style="fill:none;stroke:#0969da;stroke-width:1px"/><circle cx="331.993" cy="289.493" r="33.04" style="fill:none;stroke:#0969da;stroke-width:1px"/></g><g id="concept_svg___3.5mm-socket10"><path d="m343.884 345.344 33.201 32.677-11.89 44.378-45.092 11.699-33.202-32.678 11.891-44.377 45.092-11.699Z" style="fill:none;stroke:#0969da;stroke-width:1px"/><circle cx="331.993" cy="389.721" r="14.691" style="fill:none;stroke:#0969da;stroke-width:1px"/><circle cx="331.993" cy="389.721" r="22.391" style="fill:none;stroke:#0969da;stroke-width:1px"/><circle cx="331.993" cy="389.721" r="30.395" style="fill:none;stroke:#0969da;stroke-width:1px"/><circle cx="331.993" cy="389.721" r="33.04" style="fill:none;stroke:#0969da;stroke-width:1px"/></g><g id="concept_svg___3.5mm-socket11"><path d="m343.884 445.571 33.201 32.678-11.89 44.377-45.092 11.7-33.202-32.678 11.891-44.377 45.092-11.7Z" style="fill:none;stroke:#0969da;stroke-width:1px"/><circle cx="331.993" cy="489.949" r="14.691" style="fill:none;stroke:#0969da;stroke-width:1px"/><circle cx="331.993" cy="489.949" r="22.391" style="fill:none;stroke:#0969da;stroke-width:1px"/><circle cx="331.993" cy="489.949" r="30.395" style="fill:none;stroke:#0969da;stroke-width:1px"/><circle cx="331.993" cy="489.949" r="33.04" style="fill:none;stroke:#0969da;stroke-width:1px"/></g><g id="concept_svg___3.5mm-socket12"><path d="m343.884 545.799 33.201 32.678-11.89 44.377-45.092 11.699-33.202-32.677 11.891-44.378 45.092-11.699Z" style="fill:none;stroke:#0969da;stroke-width:1px"/><circle cx="331.993" cy="590.176" r="14.691" style="fill:none;stroke:#0969da;stroke-width:1px"/><circle cx="331.993" cy="590.176" r="22.391" style="fill:none;stroke:#0969da;stroke-width:1px"/><circle cx="331.993" cy="590.176" r="30.395" style="fill:none;stroke:#0969da;stroke-width:1px"/><circle cx="331.993" cy="590.176" r="33.04" style="fill:none;stroke:#0969da;stroke-width:1px"/></g><g id="concept_svg___3.5mm-socket13"><path d="m343.884 646.027 33.201 32.678-11.89 44.377-45.092 11.699-33.202-32.678 11.891-44.377 45.092-11.699Z" style="fill:none;stroke:#0969da;stroke-width:1px"/><circle cx="331.993" cy="690.404" r="14.691" style="fill:none;stroke:#0969da;stroke-width:1px"/><circle cx="331.993" cy="690.404" r="22.391" style="fill:none;stroke:#0969da;stroke-width:1px"/><circle cx="331.993" cy="690.404" r="30.395" style="fill:none;stroke:#0969da;stroke-width:1px"/><circle cx="331.993" cy="690.404" r="33.04" style="fill:none;stroke:#0969da;stroke-width:1px"/></g><g id="concept_svg___3.5mm-socket14"><path d="m343.884 746.255 33.201 32.678-11.89 44.377-45.092 11.699-33.202-32.678 11.891-44.377 45.092-11.699Z" style="fill:none;stroke:#0969da;stroke-width:1px"/><circle cx="331.993" cy="790.632" r="14.691" style="fill:none;stroke:#0969da;stroke-width:1px"/><circle cx="331.993" cy="790.632" r="22.391" style="fill:none;stroke:#0969da;stroke-width:1px"/><circle cx="331.993" cy="790.632" r="30.395" style="fill:none;stroke:#0969da;stroke-width:1px"/><circle cx="331.993" cy="790.632" r="33.04" style="fill:none;stroke:#0969da;stroke-width:1px"/></g><g id="concept_svg___3.5mm-socket15"><path d="m343.884 846.482 33.201 32.678-11.89 44.377-45.092 11.7-33.202-32.678 11.891-44.377 45.092-11.7Z" style="fill:none;stroke:#0969da;stroke-width:1px"/><circle cx="331.993" cy="890.86" r="14.691" style="fill:none;stroke:#0969da;stroke-width:1px"/><circle cx="331.993" cy="890.86" r="22.391" style="fill:none;stroke:#0969da;stroke-width:1px"/><circle cx="331.993" cy="890.86" r="30.395" style="fill:none;stroke:#0969da;stroke-width:1px"/><circle cx="331.993" cy="890.86" r="33.04" style="fill:none;stroke:#0969da;stroke-width:1px"/></g><g id="concept_svg___3.5mm-socket16"><path d="m482.275 345.344 33.201 32.677-11.891 44.378-45.092 11.699-33.201-32.678 11.891-44.377 45.092-11.699Z" style="fill:none;stroke:#0969da;stroke-width:1px"/><circle cx="470.384" cy="389.721" r="14.691" style="fill:none;stroke:#0969da;stroke-width:1px"/><circle cx="470.384" cy="389.721" r="22.391" style="fill:none;stroke:#0969da;stroke-width:1px"/><circle cx="470.384" cy="389.721" r="30.395" style="fill:none;stroke:#0969da;stroke-width:1px"/><circle cx="470.384" cy="389.721" r="33.04" style="fill:none;stroke:#0969da;stroke-width:1px"/></g><g id="concept_svg___3.5mm-socket17"><path d="m482.275 445.571 33.201 32.678-11.891 44.377-45.092 11.7-33.201-32.678 11.891-44.377 45.092-11.7Z" style="fill:none;stroke:#0969da;stroke-width:1px"/><circle cx="470.384" cy="489.949" r="14.691" style="fill:none;stroke:#0969da;stroke-width:1px"/><circle cx="470.384" cy="489.949" r="22.391" style="fill:none;stroke:#0969da;stroke-width:1px"/><circle cx="470.384" cy="489.949" r="30.395" style="fill:none;stroke:#0969da;stroke-width:1px"/><circle cx="470.384" cy="489.949" r="33.04" style="fill:none;stroke:#0969da;stroke-width:1px"/></g><g id="concept_svg___3.5mm-socket18"><path d="m482.275 545.799 33.201 32.678-11.891 44.377-45.092 11.699-33.201-32.677 11.891-44.378 45.092-11.699Z" style="fill:none;stroke:#0969da;stroke-width:1px"/><circle cx="470.384" cy="590.176" r="14.691" style="fill:none;stroke:#0969da;stroke-width:1px"/><circle cx="470.384" cy="590.176" r="22.391" style="fill:none;stroke:#0969da;stroke-width:1px"/><circle cx="470.384" cy="590.176" r="30.395" style="fill:none;stroke:#0969da;stroke-width:1px"/><circle cx="470.384" cy="590.176" r="33.04" style="fill:none;stroke:#0969da;stroke-width:1px"/></g><g id="concept_svg___3.5mm-socket19"><path d="m482.275 646.027 33.201 32.678-11.891 44.377-45.092 11.699-33.201-32.678 11.891-44.377 45.092-11.699Z" style="fill:none;stroke:#0969da;stroke-width:1px"/><circle cx="470.384" cy="690.404" r="14.691" style="fill:none;stroke:#0969da;stroke-width:1px"/><circle cx="470.384" cy="690.404" r="22.391" style="fill:none;stroke:#0969da;stroke-width:1px"/><circle cx="470.384" cy="690.404" r="30.395" style="fill:none;stroke:#0969da;stroke-width:1px"/><circle cx="470.384" cy="690.404" r="33.04" style="fill:none;stroke:#0969da;stroke-width:1px"/></g><g id="concept_svg___3.5mm-socket20"><path d="m482.275 746.255 33.201 32.678-11.891 44.377-45.092 11.699-33.201-32.678 11.891-44.377 45.092-11.699Z" style="fill:none;stroke:#0969da;stroke-width:1px"/><circle cx="470.384" cy="790.632" r="14.691" style="fill:none;stroke:#0969da;stroke-width:1px"/><circle cx="470.384" cy="790.632" r="22.391" style="fill:none;stroke:#0969da;stroke-width:1px"/><circle cx="470.384" cy="790.632" r="30.395" style="fill:none;stroke:#0969da;stroke-width:1px"/><circle cx="470.384" cy="790.632" r="33.04" style="fill:none;stroke:#0969da;stroke-width:1px"/></g><g id="concept_svg___3.5mm-socket21"><path d="m482.275 846.482 33.201 32.678-11.891 44.377-45.092 11.7-33.201-32.678 11.891-44.377 45.092-11.7Z" style="fill:none;stroke:#0969da;stroke-width:1px"/><circle cx="470.384" cy="890.86" r="14.691" style="fill:none;stroke:#0969da;stroke-width:1px"/><circle cx="470.384" cy="890.86" r="22.391" style="fill:none;stroke:#0969da;stroke-width:1px"/><circle cx="470.384" cy="890.86" r="30.395" style="fill:none;stroke:#0969da;stroke-width:1px"/><circle cx="470.384" cy="890.86" r="33.04" style="fill:none;stroke:#0969da;stroke-width:1px"/></g><g id="concept_svg__Screw"><circle cx="533.723" cy="143.423" r="8.572" style="fill:none;stroke:#0969da;stroke-width:1px"/><circle cx="533.723" cy="143.423" r="12.802" style="fill:none;stroke:#0969da;stroke-width:1px"/><path d="m538.009 139.138 1.568 5.854-4.285 4.285-5.854-1.568-1.568-5.854 4.285-4.285 5.854 1.568Z" style="fill:none;stroke:#0969da;stroke-width:1px"/></g><g id="concept_svg__Holes"><path id="concept_svg__Hole" d="M187.07 69.597c0-7.235-5.874-13.109-13.109-13.109h-21.636c-7.235 0-13.109 5.874-13.109 13.109v.012c0 7.235 5.874 13.11 13.109 13.11h21.636c7.235 0 13.109-5.875 13.109-13.11v-.012Z" style="fill:none;stroke:#0969da;stroke-width:1px"/><path id="concept_svg__Hole1" d="M714.125 69.597c0-7.235-5.874-13.109-13.109-13.109H679.38c-7.235 0-13.109 5.874-13.109 13.109v.012c0 7.235 5.874 13.11 13.109 13.11h21.636c7.235 0 13.109-5.875 13.109-13.11v-.012Z" style="fill:none;stroke:#0969da;stroke-width:1px"/><path id="concept_svg__Hole2" d="M187.07 1010.17c0-7.24-5.874-13.112-13.109-13.112h-21.636c-7.235 0-13.109 5.872-13.109 13.112v.01c0 7.24 5.874 13.11 13.109 13.11h21.636c7.235 0 13.109-5.87 13.109-13.11v-.01Z" style="fill:none;stroke:#0969da;stroke-width:1px"/><path id="concept_svg__Hole3" d="M714.125 1010.17c0-7.24-5.874-13.112-13.109-13.112H679.38c-7.235 0-13.109 5.872-13.109 13.112v.01c0 7.24 5.874 13.11 13.109 13.11h21.636c7.235 0 13.109-5.87 13.109-13.11v-.01Z" style="fill:none;stroke:#0969da;stroke-width:1px"/></g><path id="concept_svg__path3964" d="M396.008 133.251c-.081-.132 3.124-5.051 7.124-10.932 4-5.88 7.272-10.822 7.272-10.981 0-.18-2.494-.318-6.632-.367l-6.633-.079v-6.996l11.075-.146 11.074-.146 3.702-5.393c2.037-2.967 3.711-5.555 3.721-5.753.014-.272-1.586-.377-6.614-.437l-6.632-.078v-6.997l10.761-.077c7.512-.053 10.882-.176 11.161-.408.556-.461 7.085-10.08 7.085-10.437 0-.183-2.471-.32-6.632-.369l-6.632-.079v-6.997l14.212-.075c9.591-.051 14.212.022 14.212.224 0 .165-3.223 5.046-7.162 10.848-3.939 5.802-7.186 10.686-7.216 10.854-.035.203 2.389.354 7.235.451l7.289.146v6.997l-11.653.146-11.652.145-3.563 5.248c-1.959 2.886-3.468 5.344-3.352 5.461.116.117 3.42.248 7.344.291l7.133.079v6.996l-11.701.076-11.702.077-3.699 5.457c-2.035 3.002-3.722 5.591-3.75 5.755-.032.191 2.532.348 7.238.442l7.288.146v6.997l-14.776.075c-8.127.042-14.843-.032-14.925-.164Z" style="fill:none;fill-rule:nonzero;stroke:#0969da;stroke-width:.5px;stroke-linecap:butt;stroke-miterlimit:2"/><g id="concept_svg__Gill-Sans-Font"><path d="M704.995 698.135h4.355v26.462h13.7v3.964h-18.055v-30.426ZM128.878 178.962h3.776v20.606h-3.776zM129.748 279.158c1.957 0 3.513.558 4.669 1.674 1.155 1.116 1.733 2.603 1.733 4.462 0 1.416-.43 2.95-1.291 4.602-.86 1.652-2.372 3.84-4.535 6.564h7.065v3.569H124.04v-.427a131.407 131.407 0 0 0 4.005-5.17c1.116-1.529 1.979-2.798 2.588-3.806.61-1.008 1.043-1.866 1.298-2.574.256-.708.384-1.44.384-2.197 0-.944-.302-1.739-.907-2.383-.605-.644-1.34-.966-2.205-.966-1.554 0-3.167.885-4.838 2.655v-4.041c1.76-1.308 3.554-1.962 5.383-1.962ZM129.512 379.312c1.908 0 3.447.475 4.617 1.424 1.17.948 1.755 2.205 1.755 3.768 0 2.114-.958 3.688-2.876 4.72 1.102.394 1.932 1.035 2.493 1.925.56.89.841 1.95.841 3.179 0 1.829-.639 3.306-1.918 4.432-1.278 1.126-2.96 1.689-5.044 1.689-1.643 0-3.221-.388-4.735-1.165v-3.629c.836.561 1.603.966 2.301 1.217a6.276 6.276 0 0 0 2.139.376c.963 0 1.752-.273 2.367-.818.615-.546.922-1.257.922-2.132 0-.963-.339-1.733-1.018-2.308-.678-.575-1.608-.863-2.788-.863h-.236v-3.201h.177c1.102 0 1.962-.243 2.582-.73.619-.487.929-1.143.929-1.969 0-.816-.3-1.473-.9-1.969-.6-.497-1.367-.745-2.301-.745-1.16 0-2.38.31-3.658.929v-3.23c1.288-.6 2.739-.9 4.351-.9ZM135.516 479.732v12.021h1.755v3.024h-1.755v5.826h-3.776v-5.826h-8.423v-2.419l10.03-12.626h2.169Zm-3.865 6.254-4.558 5.767h4.647v-5.767h-.089ZM135.825 580.417v3.481h-6.534v4.44l.384-.03h.309c1.259 0 2.4.273 3.422.819a5.977 5.977 0 0 1 2.397 2.294c.576.983.863 2.089.863 3.318 0 1.938-.651 3.513-1.954 4.728-1.303 1.214-3.017 1.822-5.141 1.822-1.888 0-3.559-.389-5.015-1.166v-3.451c1.534.944 3.004 1.416 4.411 1.416 1.101 0 2.02-.308 2.758-.922.737-.615 1.106-1.394 1.106-2.338 0-1.062-.423-1.891-1.268-2.485-.846-.595-1.996-.893-3.452-.893-.688 0-1.45.089-2.286.266v-11.299h10ZM135.855 680.571c-1.101.915-2.318 2.267-3.651 4.057-1.332 1.789-2.283 3.358-2.854 4.705a5.995 5.995 0 0 1 2.36-.487c1.062 0 2.028.268 2.899.804a5.458 5.458 0 0 1 2.028 2.227c.482.949.723 2.004.723 3.164 0 1.229-.286 2.355-.856 3.378a6.286 6.286 0 0 1-2.36 2.412 6.387 6.387 0 0 1-3.275.877c-2.006 0-3.631-.676-4.874-2.028-1.244-1.352-1.866-3.11-1.866-5.273 0-2.154.646-4.46 1.939-6.918 1.293-2.458 3.056-4.764 5.288-6.918h4.499Zm-7.891 14.47c0 .954.268 1.741.804 2.36.535.62 1.226.929 2.072.929.826 0 1.495-.292 2.006-.877.511-.585.767-1.36.767-2.323 0-.905-.263-1.655-.789-2.25s-1.207-.892-2.043-.892c-.806 0-1.478.292-2.013.877-.536.586-.804 1.311-.804 2.176ZM138.023 781.256v.118l-8.304 20.754-3.481-1.298 6.505-16.034h-8.216v-3.54h13.496ZM130.81 881.411c1.839 0 3.341.536 4.507 1.607 1.165 1.072 1.748 2.459 1.748 4.16 0 1.858-.846 3.319-2.538 4.381 1.062.56 1.829 1.254 2.302 2.08.472.826.708 1.794.708 2.905 0 1.141-.291 2.171-.871 3.09-.58.92-1.386 1.635-2.419 2.147-1.032.511-2.178.767-3.437.767-1.966 0-3.586-.561-4.86-1.682-1.273-1.121-1.91-2.562-1.91-4.322 0-1.17.251-2.161.752-2.972.502-.811 1.259-1.482 2.272-2.013-1.691-1.072-2.537-2.542-2.537-4.411 0-1.691.587-3.07 1.763-4.137 1.175-1.067 2.682-1.6 4.52-1.6Zm-2.507 5.826c0 .885.236 1.61.708 2.176.472.565 1.072.848 1.799.848.708 0 1.298-.293 1.77-.878s.708-1.3.708-2.146c0-.895-.223-1.603-.671-2.124-.447-.521-1.049-.782-1.807-.782-.767 0-1.376.256-1.829.767-.452.512-.678 1.224-.678 2.139Zm-.428 9.13c0 1.013.266 1.81.797 2.39.531.58 1.244.87 2.138.87.895 0 1.601-.292 2.117-.878.516-.585.774-1.359.774-2.323 0-.963-.265-1.755-.796-2.374-.531-.62-1.219-.93-2.065-.93-.885 0-1.6.293-2.146.878-.546.585-.819 1.374-.819 2.367ZM267.738 178.962h3.776v20.606h-3.776zM268.608 279.158c1.957 0 3.513.558 4.669 1.674 1.155 1.116 1.733 2.603 1.733 4.462 0 1.416-.43 2.95-1.291 4.602-.86 1.652-2.372 3.84-4.536 6.564h7.066v3.569H262.9v-.427a132.377 132.377 0 0 0 4.005-5.17c1.116-1.529 1.979-2.798 2.588-3.806.61-1.008 1.043-1.866 1.298-2.574.256-.708.384-1.44.384-2.197 0-.944-.303-1.739-.907-2.383-.605-.644-1.34-.966-2.206-.966-1.553 0-3.166.885-4.838 2.655v-4.041c1.761-1.308 3.555-1.962 5.384-1.962ZM268.372 379.312c1.908 0 3.447.475 4.617 1.424 1.17.948 1.755 2.205 1.755 3.768 0 2.114-.958 3.688-2.876 4.72 1.101.394 1.932 1.035 2.493 1.925.56.89.841 1.95.841 3.179 0 1.829-.64 3.306-1.918 4.432-1.278 1.126-2.96 1.689-5.045 1.689-1.642 0-3.22-.388-4.734-1.165v-3.629c.836.561 1.603.966 2.301 1.217a6.275 6.275 0 0 0 2.138.376c.964 0 1.753-.273 2.368-.818.614-.546.922-1.257.922-2.132 0-.963-.339-1.733-1.018-2.308-.679-.575-1.608-.863-2.788-.863h-.236v-3.201h.177c1.102 0 1.962-.243 2.581-.73.62-.487.93-1.143.93-1.969 0-.816-.3-1.473-.9-1.969-.6-.497-1.367-.745-2.301-.745-1.16 0-2.38.31-3.658.929v-3.23c1.288-.6 2.739-.9 4.351-.9ZM274.376 479.732v12.021h1.755v3.024h-1.755v5.826H270.6v-5.826h-8.423v-2.419l10.03-12.626h2.169Zm-3.865 6.254-4.558 5.767h4.647v-5.767h-.089ZM274.685 580.417v3.481h-6.534v4.44l.383-.03h.31c1.259 0 2.4.273 3.422.819a5.977 5.977 0 0 1 2.397 2.294c.575.983.863 2.089.863 3.318 0 1.938-.651 3.513-1.954 4.728-1.303 1.214-3.017 1.822-5.141 1.822-1.888 0-3.559-.389-5.015-1.166v-3.451c1.534.944 3.004 1.416 4.41 1.416 1.102 0 2.021-.308 2.759-.922.737-.615 1.106-1.394 1.106-2.338 0-1.062-.423-1.891-1.268-2.485-.846-.595-1.997-.893-3.452-.893-.688 0-1.45.089-2.286.266v-11.299h10ZM274.715 680.571c-1.102.915-2.318 2.267-3.651 4.057-1.332 1.789-2.284 3.358-2.854 4.705a5.995 5.995 0 0 1 2.36-.487c1.062 0 2.028.268 2.898.804a5.454 5.454 0 0 1 2.029 2.227c.481.949.722 2.004.722 3.164 0 1.229-.285 2.355-.855 3.378a6.293 6.293 0 0 1-2.36 2.412 6.387 6.387 0 0 1-3.275.877c-2.006 0-3.631-.676-4.875-2.028-1.244-1.352-1.866-3.11-1.866-5.273 0-2.154.647-4.46 1.94-6.918s3.056-4.764 5.288-6.918h4.499Zm-7.892 14.47c0 .954.268 1.741.804 2.36.536.62 1.227.929 2.073.929.826 0 1.494-.292 2.006-.877.511-.585.767-1.36.767-2.323 0-.905-.263-1.655-.789-2.25s-1.207-.892-2.043-.892c-.807 0-1.478.292-2.014.877-.536.586-.804 1.311-.804 2.176ZM276.883 781.256v.118l-8.304 20.754-3.481-1.298 6.505-16.034h-8.216v-3.54h13.496ZM269.67 881.411c1.839 0 3.341.536 4.506 1.607 1.166 1.072 1.748 2.459 1.748 4.16 0 1.858-.845 3.319-2.537 4.381 1.062.56 1.829 1.254 2.301 2.08.472.826.708 1.794.708 2.905 0 1.141-.29 2.171-.87 3.09-.58.92-1.386 1.635-2.419 2.147-1.032.511-2.178.767-3.437.767-1.966 0-3.587-.561-4.86-1.682-1.273-1.121-1.91-2.562-1.91-4.322 0-1.17.251-2.161.752-2.972.502-.811 1.259-1.482 2.272-2.013-1.692-1.072-2.537-2.542-2.537-4.411 0-1.691.587-3.07 1.762-4.137 1.175-1.067 2.682-1.6 4.521-1.6Zm-2.507 5.826c0 .885.236 1.61.708 2.176.472.565 1.072.848 1.799.848.708 0 1.298-.293 1.77-.878s.708-1.3.708-2.146c0-.895-.223-1.603-.671-2.124-.447-.521-1.05-.782-1.807-.782-.767 0-1.376.256-1.829.767-.452.512-.678 1.224-.678 2.139Zm-.428 9.13c0 1.013.265 1.81.796 2.39.531.58 1.244.87 2.139.87.895 0 1.601-.292 2.117-.878.516-.585.774-1.359.774-2.323 0-.963-.265-1.755-.796-2.374-.531-.62-1.22-.93-2.065-.93-.885 0-1.601.293-2.146.878-.546.585-.819 1.374-.819 2.367ZM400.763 379.312c1.298 0 2.463.305 3.496.915 1.032.609 1.829 1.467 2.389 2.574.561 1.106.841 2.377.841 3.812 0 2.164-.657 4.499-1.969 7.007-1.313 2.507-3.061 4.784-5.244 6.829h-4.499c1.17-1.013 2.409-2.392 3.717-4.137 1.308-1.746 2.232-3.282 2.773-4.61a5.942 5.942 0 0 1-2.36.472c-1.632 0-2.982-.582-4.049-1.748-1.067-1.165-1.6-2.657-1.6-4.476 0-1.2.28-2.309.841-3.326a6.285 6.285 0 0 1 2.345-2.419 6.384 6.384 0 0 1 3.319-.893Zm-2.759 6.579c0 .914.261 1.666.782 2.256.521.59 1.21.886 2.065.886.807 0 1.475-.298 2.006-.893.531-.595.797-1.305.797-2.131 0-.984-.268-1.783-.804-2.397-.536-.615-1.232-.922-2.087-.922-.826 0-1.492.295-1.999.885-.506.59-.76 1.362-.76 2.316ZM390.948 479.997h3.776v20.606h-3.776zM408.826 479.732c2.084 0 3.739.939 4.963 2.817 1.224 1.878 1.837 4.445 1.837 7.7 0 3.284-.605 5.875-1.815 7.773-1.209 1.898-2.861 2.847-4.956 2.847-2.124 0-3.803-.942-5.037-2.825-1.234-1.883-1.851-4.462-1.851-7.736 0-3.265.614-5.844 1.844-7.737 1.229-1.893 2.9-2.839 5.015-2.839Zm-3.024 10.694c0 4.71 1.008 7.065 3.024 7.065 1.966 0 2.95-2.478 2.95-7.434 0-4.632-.993-6.947-2.98-6.947-1.996 0-2.994 2.438-2.994 7.316ZM390.948 580.417h3.776v20.606h-3.776zM406.893 580.417h3.776v20.606h-3.776zM390.948 680.837h3.776v20.606h-3.776zM407.764 680.571c1.957 0 3.513.558 4.668 1.674 1.156 1.116 1.733 2.604 1.733 4.462 0 1.416-.43 2.95-1.29 4.602-.861 1.652-2.373 3.84-4.536 6.564h7.065v3.57h-13.349v-.428a131.407 131.407 0 0 0 4.005-5.17c1.116-1.529 1.979-2.798 2.589-3.806.609-1.007 1.042-1.865 1.298-2.573a6.44 6.44 0 0 0 .383-2.198c0-.944-.302-1.738-.907-2.382-.605-.644-1.34-.966-2.205-.966-1.554 0-3.166.885-4.838 2.655v-4.042c1.76-1.308 3.555-1.962 5.384-1.962ZM390.948 781.256h3.776v20.606h-3.776zM407.528 780.991c1.907 0 3.446.474 4.616 1.423 1.171.949 1.756 2.205 1.756 3.769 0 2.114-.959 3.688-2.877 4.72 1.102.393 1.933 1.035 2.493 1.925.561.89.841 1.949.841 3.179 0 1.829-.639 3.306-1.918 4.432-1.278 1.126-2.959 1.689-5.044 1.689-1.642 0-3.221-.389-4.735-1.165v-3.629c.836.561 1.603.966 2.301 1.217a6.276 6.276 0 0 0 2.139.376c.964 0 1.753-.273 2.367-.819.615-.545.922-1.256.922-2.131 0-.964-.339-1.733-1.018-2.308-.678-.576-1.607-.863-2.787-.863h-.236v-3.201h.177c1.101 0 1.961-.243 2.581-.73.619-.487.929-1.143.929-1.969 0-.816-.3-1.473-.9-1.969-.599-.497-1.366-.745-2.301-.745-1.16 0-2.379.309-3.658.929v-3.23c1.289-.6 2.739-.9 4.352-.9ZM390.948 881.676h3.776v20.606h-3.776zM413.531 881.411v12.021h1.755v3.024h-1.755v5.826h-3.776v-5.826h-8.422v-2.419l10.03-12.626h2.168Zm-3.865 6.254-4.557 5.767h4.646v-5.767h-.089ZM702.294 890.206v-30.427h7.623c3.078 0 5.521.763 7.329 2.287 1.807 1.525 2.711 3.587 2.711 6.186 0 1.771-.443 3.303-1.328 4.595-.886 1.292-2.157 2.258-3.812 2.897.973.639 1.924 1.51 2.853 2.613.93 1.104 2.236 3.028 3.921 5.772 1.06 1.728 1.909 3.027 2.548 3.899l1.611 2.178h-5.183l-1.329-2.004a4.751 4.751 0 0 0-.261-.37l-.849-1.198-1.351-2.222-1.459-2.374c-.9-1.249-1.724-2.243-2.472-2.984-.748-.74-1.423-1.274-2.025-1.6-.603-.327-1.616-.49-3.039-.49h-1.132v13.242h-4.356Zm5.663-26.724h-1.307v9.605h1.655c2.207 0 3.721-.189 4.541-.567a4.26 4.26 0 0 0 1.917-1.709c.457-.763.686-1.63.686-2.603 0-.958-.254-1.826-.763-2.603-.508-.776-1.223-1.324-2.145-1.644-.922-.319-2.45-.479-4.584-.479ZM309.049 967.881h-13.733c.099 1.868.725 3.354 1.879 4.458 1.153 1.103 2.642 1.655 4.467 1.655 2.547 0 4.896-.792 7.047-2.377v3.778c-1.188.792-2.366 1.358-3.534 1.698-1.167.34-2.536.509-4.107.509-2.151 0-3.891-.445-5.221-1.337-1.33-.891-2.395-2.09-3.195-3.597-.799-1.507-1.199-3.251-1.199-5.232 0-2.972.842-5.388 2.526-7.249 1.684-1.861 3.87-2.791 6.558-2.791 2.59 0 4.656.906 6.198 2.717 1.543 1.811 2.314 4.238 2.314 7.28v.488Zm-13.648-2.313h9.827c-.099-1.543-.559-2.731-1.379-3.566-.821-.835-1.925-1.252-3.312-1.252-1.386 0-2.522.417-3.406 1.252-.885.835-1.461 2.023-1.73 3.566ZM326.708 957.778h4.946l-8.045 9.615 8.618 9.912h-4.946l-6.134-7.004-5.794 7.004h-4.861l8.214-9.912-8.214-9.615h4.861l5.794 6.707 5.561-6.707ZM334.71 987.26v-29.482h6.771c3.467 0 6.166.863 8.097 2.59 1.932 1.726 2.898 4.138 2.898 7.237 0 2.929-.91 5.335-2.728 7.217-1.818 1.882-4.135 2.823-6.951 2.823-1.245 0-2.625-.276-4.139-.828v10.443h-3.948Zm6.686-25.874h-2.738V973.4a8.1 8.1 0 0 0 3.736.913c1.811 0 3.293-.63 4.446-1.89 1.154-1.259 1.73-2.879 1.73-4.86 0-1.274-.272-2.399-.817-3.375-.545-.976-1.288-1.687-2.229-2.133-.941-.446-2.317-.669-4.128-.669ZM373.34 967.881h-13.733c.099 1.868.725 3.354 1.879 4.458 1.153 1.103 2.642 1.655 4.468 1.655 2.547 0 4.896-.792 7.046-2.377v3.778c-1.188.792-2.366 1.358-3.534 1.698-1.167.34-2.536.509-4.107.509-2.151 0-3.891-.445-5.221-1.337-1.33-.891-2.395-2.09-3.195-3.597-.799-1.507-1.199-3.251-1.199-5.232 0-2.972.842-5.388 2.526-7.249 1.684-1.861 3.87-2.791 6.559-2.791 2.589 0 4.655.906 6.197 2.717 1.543 1.811 2.314 4.238 2.314 7.28v.488Zm-13.648-2.313h9.827c-.099-1.543-.559-2.731-1.379-3.566-.821-.835-1.925-1.252-3.311-1.252-1.387 0-2.523.417-3.407 1.252-.884.835-1.461 2.023-1.73 3.566ZM381.66 957.778v4.479l.212-.34c1.868-3.014 3.736-4.521 5.604-4.521 1.457 0 2.979.736 4.563 2.207l-2.037 3.396c-1.345-1.273-2.59-1.91-3.736-1.91-1.245 0-2.324.595-3.237 1.783-.912 1.189-1.369 2.597-1.369 4.224v10.209h-3.884v-19.527h3.884ZM392.867 960.877l7.259-7.132v4.033h6.177v3.481h-6.177v9.573c0 2.235.927 3.353 2.781 3.353 1.386 0 2.851-.467 4.393-1.401v3.609c-1.485.834-3.106 1.252-4.86 1.252-1.769 0-3.241-.517-4.415-1.55a4.416 4.416 0 0 1-.913-1.05c-.24-.389-.442-.899-.605-1.528-.162-.63-.244-1.829-.244-3.598v-8.66h-3.396v-.382ZM421.203 975.904v-4.16a17.594 17.594 0 0 0 3.343 1.857c1.139.475 2.098.712 2.876.712.806 0 1.5-.199 2.08-.595.58-.396.87-.87.87-1.422 0-.566-.187-1.036-.562-1.411-.375-.375-1.185-.917-2.431-1.624-2.49-1.387-4.121-2.572-4.892-3.555-.771-.984-1.157-2.056-1.157-3.216 0-1.5.584-2.724 1.751-3.672 1.168-.948 2.671-1.422 4.511-1.422 1.91 0 3.87.538 5.879 1.613v3.821c-2.292-1.387-4.167-2.08-5.625-2.08-.75 0-1.355.159-1.814.477-.46.319-.69.74-.69 1.263 0 .453.208.884.626 1.295.417.41 1.15.905 2.197 1.486l1.379.785c3.255 1.839 4.882 3.877 4.882 6.113 0 1.599-.626 2.911-1.878 3.937-1.253 1.026-2.862 1.539-4.829 1.539-1.16 0-2.193-.124-3.099-.372-.906-.247-2.045-.704-3.417-1.369ZM438.968 947.654h3.863v29.652h-3.863zM465.054 967.881h-13.733c.099 1.868.726 3.354 1.879 4.458 1.153 1.103 2.642 1.655 4.468 1.655 2.547 0 4.896-.792 7.046-2.377v3.778c-1.188.792-2.366 1.358-3.534 1.698-1.167.34-2.536.509-4.107.509-2.15 0-3.891-.445-5.221-1.337-1.33-.891-2.395-2.09-3.194-3.597-.8-1.507-1.2-3.251-1.2-5.232 0-2.972.842-5.388 2.526-7.249 1.684-1.861 3.87-2.791 6.559-2.791 2.589 0 4.655.906 6.198 2.717 1.542 1.811 2.313 4.238 2.313 7.28v.488Zm-13.648-2.313h9.828c-.099-1.543-.559-2.731-1.38-3.566-.821-.835-1.925-1.252-3.311-1.252-1.387 0-2.522.417-3.407 1.252-.884.835-1.461 2.023-1.73 3.566ZM485.876 967.881h-13.733c.099 1.868.726 3.354 1.879 4.458 1.153 1.103 2.642 1.655 4.468 1.655 2.547 0 4.896-.792 7.046-2.377v3.778c-1.188.792-2.366 1.358-3.534 1.698-1.167.34-2.536.509-4.107.509-2.15 0-3.891-.445-5.221-1.337-1.33-.891-2.395-2.09-3.194-3.597-.8-1.507-1.2-3.251-1.2-5.232 0-2.972.842-5.388 2.526-7.249 1.684-1.861 3.87-2.791 6.559-2.791 2.589 0 4.655.906 6.197 2.717 1.543 1.811 2.314 4.238 2.314 7.28v.488Zm-13.648-2.313h9.827c-.099-1.543-.558-2.731-1.379-3.566s-1.925-1.252-3.311-1.252c-1.387 0-2.523.417-3.407 1.252-.884.835-1.461 2.023-1.73 3.566ZM489.803 987.26v-29.482h6.771c3.466 0 6.165.863 8.097 2.59 1.931 1.726 2.897 4.138 2.897 7.237 0 2.929-.909 5.335-2.727 7.217-1.819 1.882-4.136 2.823-6.952 2.823-1.245 0-2.624-.276-4.138-.828v10.443h-3.948Zm6.686-25.874h-2.738V973.4a8.094 8.094 0 0 0 3.735.913c1.811 0 3.294-.63 4.447-1.89 1.153-1.259 1.73-2.879 1.73-4.86 0-1.274-.273-2.399-.817-3.375-.545-.976-1.288-1.687-2.229-2.133-.941-.446-2.317-.669-4.128-.669ZM528.433 967.881H514.7c.099 1.868.725 3.354 1.878 4.458 1.154 1.103 2.643 1.655 4.468 1.655 2.547 0 4.896-.792 7.047-2.377v3.778c-1.189.792-2.367 1.358-3.534 1.698-1.167.34-2.536.509-4.107.509-2.151 0-3.891-.445-5.222-1.337-1.33-.891-2.394-2.09-3.194-3.597-.799-1.507-1.199-3.251-1.199-5.232 0-2.972.842-5.388 2.526-7.249 1.684-1.861 3.87-2.791 6.558-2.791 2.59 0 4.656.906 6.198 2.717 1.542 1.811 2.314 4.238 2.314 7.28v.488Zm-13.648-2.313h9.827c-.099-1.543-.559-2.731-1.38-3.566-.82-.835-1.924-1.252-3.311-1.252-1.386 0-2.522.417-3.406 1.252-.885.835-1.461 2.023-1.73 3.566ZM536.753 957.778v4.479l.212-.34c1.868-3.014 3.736-4.521 5.604-4.521 1.457 0 2.978.736 4.563 2.207l-2.038 3.396c-1.344-1.273-2.589-1.91-3.735-1.91-1.245 0-2.324.595-3.237 1.783-.913 1.189-1.369 2.597-1.369 4.224v10.209h-3.884v-19.527h3.884ZM548.872 975.904v-4.16a17.624 17.624 0 0 0 3.343 1.857c1.14.475 2.098.712 2.876.712.807 0 1.5-.199 2.081-.595.58-.396.87-.87.87-1.422 0-.566-.188-1.036-.563-1.411-.375-.375-1.185-.917-2.43-1.624-2.49-1.387-4.121-2.572-4.892-3.555-.772-.984-1.157-2.056-1.157-3.216 0-1.5.583-2.724 1.751-3.672 1.167-.948 2.671-1.422 4.51-1.422 1.911 0 3.87.538 5.88 1.613v3.821c-2.293-1.387-4.168-2.08-5.625-2.08-.75 0-1.355.159-1.815.477-.46.319-.69.74-.69 1.263 0 .453.209.884.627 1.295.417.41 1.149.905 2.196 1.486l1.38.785c3.254 1.839 4.882 3.877 4.882 6.113 0 1.599-.626 2.911-1.879 3.937-1.252 1.026-2.862 1.539-4.828 1.539-1.161 0-2.194-.124-3.099-.372-.906-.247-2.045-.704-3.418-1.369ZM408.037 982.491v4.481H395.91v7.792h11.61v4.48h-11.61v8.426h12.395v4.48h-17.567v-29.659h17.299ZM420.892 982.109c2.605 0 5.115.722 7.529 2.166v5.096c-2.772-1.855-5.23-2.782-7.376-2.782-1.303 0-2.321.28-3.056.839-.734.559-1.101 1.306-1.101 2.24 0 1.118.683 2.152 2.05 3.1.383.283 1.858 1.076 4.425 2.378 2.197 1.147 3.781 2.421 4.751 3.822.971 1.402 1.456 3.082 1.456 5.052 0 2.55-.827 4.6-2.481 6.17-1.654 1.56-3.796 2.34-6.427 2.34-1.712 0-3.183-.2-4.416-.62-1.232-.42-2.615-1.14-4.148-2.16v-5.64c2.861 2.63 5.556 3.95 8.085 3.95 1.264 0 2.286-.31 3.065-.92.779-.61 1.169-1.41 1.169-2.42 0-1.37-.677-2.49-2.031-3.35a96.51 96.51 0 0 0-4.349-2.445c-2.107-1.061-3.681-2.3-4.722-3.715-1.041-1.416-1.561-3.058-1.561-4.926 0-2.492.836-4.477 2.509-5.956s3.883-2.219 6.629-2.219ZM433.421 999.796h9.924v5.011h-9.924zM455.088 982.109c1.686 0 3.2.439 4.541 1.317 1.341.877 2.375 2.112 3.103 3.705.728 1.592 1.092 3.422 1.092 5.488 0 3.114-.852 6.476-2.557 10.091a36.733 36.733 0 0 1-6.811 9.82h-5.843c1.52-1.45 3.129-3.44 4.828-5.95 1.698-2.51 2.899-4.72 3.601-6.635a7.046 7.046 0 0 1-3.065.675c-2.12 0-3.873-.835-5.259-2.512-1.385-1.677-2.078-3.825-2.078-6.444 0-1.727.364-3.323 1.092-4.788.728-1.465 1.743-2.626 3.046-3.482a7.676 7.676 0 0 1 4.31-1.285Zm-3.582 9.47c0 1.316.338 2.399 1.015 3.249.677.849 1.571 1.273 2.682 1.273 1.047 0 1.916-.428 2.606-1.284.689-.856 1.034-1.879 1.034-3.068 0-1.416-.348-2.566-1.044-3.45-.696-.885-1.6-1.327-2.711-1.327-1.073 0-1.938.424-2.596 1.273-.657.85-.986 1.961-.986 3.334Z" style="fill:none;fill-rule:nonzero;stroke:#0969da;stroke-width:.5px;stroke-linecap:butt;stroke-miterlimit:2"/></g><g id="concept_svg__Screw1"><circle cx="242.425" cy="143.423" r="12.802" style="fill:none;stroke:#0969da;stroke-width:1px"/><circle cx="242.425" cy="143.423" r="8.572" style="fill:none;stroke:#0969da;stroke-width:1px"/><path d="m246.71 139.138 1.569 5.854-4.285 4.285-5.854-1.568-1.569-5.854 4.286-4.285 5.853 1.568Z" style="fill:none;stroke:#0969da;stroke-width:1px"/></g><g id="concept_svg__Screw2"><circle cx="242.425" cy="938.423" r="12.802" style="fill:none;stroke:#0969da;stroke-width:1px"/><circle cx="242.425" cy="938.423" r="8.572" style="fill:none;stroke:#0969da;stroke-width:1px"/><path d="m246.71 934.138 1.569 5.854-4.285 4.285-5.854-1.568-1.569-5.854 4.286-4.285 5.853 1.568Z" style="fill:none;stroke:#0969da;stroke-width:1px"/></g><g id="concept_svg__Screw3"><circle cx="533.723" cy="938.423" r="12.802" style="fill:none;stroke:#0969da;stroke-width:1px"/><circle cx="533.723" cy="938.423" r="8.572" style="fill:none;stroke:#0969da;stroke-width:1px"/><path d="m538.009 934.138 1.568 5.854-4.285 4.285-5.854-1.568-1.568-5.854 4.285-4.285 5.854 1.568Z" style="fill:none;stroke:#0969da;stroke-width:1px"/></g><path d="M689.019 315.588v-5.415c0-6.232-5.06-11.292-11.292-11.292h-13.245c-6.232 0-11.292 5.06-11.292 11.292v69.773c0 6.232 5.06 11.291 11.292 11.291h13.245c6.232 0 11.292-5.059 11.292-11.291v-39.633M1117.96 337.009h-10.28M1107.68 431.292h9.01" style="fill:none;stroke:#0969da;stroke-width:3px"/><path d="M1431.96 880.827c29.92 0 44.61-12.046 44.61-32.223 0-19.123-11.5-26.049-31.33-30.566l-10.63-2.41c-11.5-2.559-15.4-5.721-15.4-12.949 0-7.83 6.73-12.046 19.12-12.046 13.63 0 23.55 2.861 31.69 5.27v-16.111c-7.08-3.012-16.28-5.571-33.28-5.571-27.97 0-41.61 12.196-41.61 29.964 0 19.123 11.16 26.35 28.69 30.265l10.97 2.409c12.92 2.861 17 5.873 17 14.004s-6.73 13.551-22.13 13.551c-13.46 0-24.97-2.71-34.88-6.324v16.413c8.5 3.764 20.89 6.324 37.18 6.324Zm-265.62-1.656h23.01l9.92-24.694h43.19l10.1 24.694h25.84l-42.66-103.294h-26.21l-43.19 103.294Zm129.65 0h79.14v-16.413h-54v-28.609h41.25v-15.961h-41.25v-26.2h52.76v-16.111h-77.9v103.294Zm-75.83-79.052h.71l15.75 39.15h-31.69l15.23-39.15Z" style="fill:#0969da;fill-rule:nonzero"/><path d="M1639.73 731.51v-28.539h-80.66v28.539h-19.27v28.539h-48.95v138.372h217.1V760.049H1659V731.51h-19.27Zm-86.42 149.317c28.15 0 42.67-15.961 42.67-35.987 0-19.725-14.87-30.868-36.12-30.868-12.22 0-21.95 4.216-27.97 8.432 1.77-24.242 13.98-31.319 30.8-31.319 8.32 0 18.42 2.409 23.37 4.517l4.25-15.66c-5.31-2.559-16.29-5.721-28.5-5.721-29.57 0-54.71 13.702-54.71 53.604v7.077c0 28.157 15.76 45.925 46.21 45.925Zm68.34-1.807h27.62l42.66-90.947v-12.347h-80.02v16.413h52.76l-43.02 86.881Zm-68.87-13.552c-14.7 0-20.71-10.088-20.71-26.952v-.904c3.89-4.366 12.21-8.884 20-8.884 11.51 0 20.18 4.819 20.18 17.768 0 12.197-7.61 18.972-19.47 18.972Z" style="fill:#0969da"/><path d="M1052.42 353.229v60.333M873.362 308.317l-22.236 22.236M860.627 340.054l22.236-22.236" style="fill:none;stroke:#0969da;stroke-width:1px"/><path d="m886.243 304.969-38.375 38.376" style="fill:none;stroke:#0969da;stroke-width:3px"/><path d="M1122.95 542.235h-15.79v38.013h15.79v-38.013Zm-3 3v32.013h-9.79v-32.013h9.79Zm3-28.751V478.47h-15.79v38.014h15.79Zm-3-3h-9.79V481.47h9.79v32.014Z" style="fill:#0969da"/><path d="M1107.54 542.235v39.827c0 1.061-.43 2.078-1.18 2.828a3.979 3.979 0 0 1-2.82 1.172h-10.05a4.002 4.002 0 0 1-4-4V554.06c0-2.21-1.79-4-4-4h-4.26a4 4 0 0 0-4 4v25.297c0 1.173-.52 2.287-1.41 3.047-.9.76-2.08 1.09-3.24.901l-4.26-.696a3.998 3.998 0 0 1-3.36-3.948v-99.676a4 4 0 0 1 3.36-3.948l4.26-.695c1.16-.189 2.34.14 3.24.9.89.76 1.41 1.874 1.41 3.048v25.297a4 4 0 0 0 4 4h4.26a4 4 0 0 0 4-4v-28.002a4 4 0 0 1 4-4h10.05c1.06 0 2.07.421 2.82 1.171a4.01 4.01 0 0 1 1.18 2.829v40.899h-27.11a6.436 6.436 0 0 0-6.43 6.437v12.876c0 3.553 2.88 6.438 6.43 6.438h27.11Zm-67.11-59.25a4 4 0 0 1 3.36-3.948l4.26-.695c1.16-.189 2.34.14 3.24.9.89.76 1.41 1.874 1.41 3.048v93.067c0 1.173-.52 2.287-1.41 3.047-.9.76-2.08 1.09-3.24.901l-4.26-.696a3.998 3.998 0 0 1-3.36-3.948V554.06c0-2.21-1.79-4-4-4h-4.26c-2.21 0-4 1.79-4 4v17.297c0 1.173-.52 2.287-1.41 3.047-.9.76-2.08 1.09-3.24.901l-4.26-.696a3.998 3.998 0 0 1-3.36-3.948v-83.676a4 4 0 0 1 3.36-3.948l4.26-.695c1.16-.189 2.34.14 3.24.9.89.76 1.41 1.874 1.41 3.048v17.297a4 4 0 0 0 4 4h4.26a4 4 0 0 0 4-4v-20.602Zm-49.058 8a4 4 0 0 1 3.356-3.948l4.265-.695a4.012 4.012 0 0 1 3.237.9c.89.76 1.41 1.874 1.41 3.048v77.067c0 1.173-.52 2.287-1.41 3.047-.9.76-2.08 1.09-3.237.901l-4.265-.696a4 4 0 0 1-3.356-3.948V554.06a4 4 0 0 0-4-4h-4.265a4 4 0 0 0-4 4v9.297a4 4 0 0 1-4.644 3.948l-4.265-.696a4 4 0 0 1-3.356-3.948v-67.676a4 4 0 0 1 3.356-3.948l4.265-.695a4 4 0 0 1 4.644 3.948v9.297a4 4 0 0 0 4 4h4.265a4 4 0 0 0 4-4v-12.602Z" style="fill:none;stroke:#0969da;stroke-width:1px"/><path d="M1563.53 391.681c-1.09-.424-2.16-.571-3.11.291-1.47-.191-1.95.203-2.31.663-.32-.007-2.42-.332-3.38 1.099-2.41-.285-3.17 1.419-2.31 3.008-.49.762-1 1.516.15 2.97-.41.809-.15 1.688.81 2.75-.26 1.139.24 1.942 1.13 2.568-.16 1.557 1.43 2.463 1.91 2.785.18.908.56 1.764 2.39 2.238.3 1.352 1.39 1.586 2.45 1.87-3.5 2.037-6.51 4.718-6.49 11.296l-.51.915c-4.02 2.445-7.64 10.3-1.98 16.686.37 1.998.99 3.434 1.54 5.023.82 6.402 6.21 9.4 7.63 9.755 2.08 1.585 4.29 3.089 7.29 4.142 2.83 2.916 5.89 4.027 8.97 4.025.05 0 6.28-1.109 9.11-4.025 3-1.053 5.21-2.557 7.29-4.142 1.42-.355 6.8-3.353 7.63-9.755.55-1.589 1.17-3.025 1.54-5.023 5.65-6.386 2.04-14.242-1.98-16.686l-.51-.916c.02-6.577-2.99-9.258-6.49-11.296 1.06-.284 2.15-.517 2.45-1.87 1.82-.474 2.2-1.33 2.39-2.238.47-.322 2.07-1.228 1.9-2.785.89-.626 1.39-1.429 1.14-2.567.96-1.063 1.21-1.942.81-2.751 1.15-1.453.64-2.207.14-2.969.87-1.589.11-3.293-2.31-3.008-.96-1.432-3.05-1.106-3.37-1.1-.36-.459-.84-.853-2.31-.662-.96-.862-2.02-.715-3.12-.292-1.3-1.029-2.16-.204-3.15.108-1.58-.516-1.94.191-2.72.479-1.72-.364-2.24.428-3.07 1.264l-.96-.019c-2.6 1.531-3.89 4.648-4.34 6.25-.46-1.603-1.75-4.719-4.35-6.25l-.96.019c-.82-.836-1.35-1.628-3.07-1.264-.77-.288-1.13-.995-2.71-.479-.65-.205-1.55-.548-1.95-.548-.67 0-.76.087-1.21.441Z" style="fill:none;fill-rule:nonzero;stroke:#0969da;stroke-width:.5px;stroke-linecap:butt;stroke-miterlimit:2"/><path d="M1559.57 397.914c6.9 3.553 10.9 6.427 13.1 8.874-1.13 4.505-6.99 4.711-9.14 4.584.44-.204.81-.449.94-.825-.54-.382-2.45-.04-3.78-.788.51-.106.75-.21.99-.587-1.26-.401-2.61-.747-3.41-1.412.43.005.83.096 1.4-.293-1.13-.607-2.33-1.089-3.27-2.017.59-.014 1.21-.006 1.4-.22a12.403 12.403 0 0 1-2.63-2.127c.82.098 1.16.014 1.36-.128-.78-.799-1.77-1.473-2.24-2.457.61.208 1.16.288 1.56-.019-.26-.597-1.4-.95-2.05-2.347.64.062 1.31.139 1.45 0-.3-1.205-.81-1.882-1.3-2.585 1.36-.02 3.43.006 3.33-.109l-.84-.862c1.33-.359 2.69.057 3.68.366.45-.35 0-.794-.54-1.246 1.13.151 2.15.411 3.07.77.5-.446-.32-.893-.71-1.339 1.75.332 2.49.799 3.23 1.265.53-.512.03-.947-.33-1.393 1.32.488 2 1.119 2.71 1.742.24-.327.62-.567.17-1.357.93.54 1.64 1.176 2.16 1.889.58-.369.34-.874.35-1.339.97.792 1.59 1.634 2.35 2.457.15-.111.28-.487.4-1.082 2.32 2.253 5.6 7.927.84 10.176-4.05-3.34-8.89-5.769-14.25-7.59v-.001Zm36.57 0c-6.89 3.553-10.9 6.426-13.09 8.874 1.12 4.505 6.98 4.711 9.13 4.584-.44-.204-.81-.449-.94-.825.54-.382 2.45-.04 3.78-.788-.51-.106-.75-.21-.99-.587 1.26-.401 2.61-.747 3.41-1.412-.43.005-.83.096-1.39-.293 1.12-.607 2.33-1.089 3.26-2.017-.58-.014-1.21-.006-1.39-.22 1.03-.639 1.9-1.35 2.62-2.127-.82.098-1.16.014-1.36-.128.78-.799 1.77-1.473 2.24-2.457-.61.208-1.16.288-1.56-.019.26-.597 1.4-.95 2.05-2.347-.63.062-1.31.139-1.44 0 .29-1.205.8-1.883 1.3-2.585-1.37-.02-3.43.005-3.34-.11l.84-.862c-1.33-.358-2.69.058-3.68.367-.45-.351.01-.794.55-1.247-1.13.151-2.16.412-3.08.77-.5-.446.32-.892.71-1.338-1.75.332-2.49.798-3.22 1.265-.54-.512-.03-.948.33-1.393-1.32.488-2 1.119-2.72 1.741-.24-.327-.61-.567-.16-1.356-.94.539-1.64 1.175-2.17 1.888-.58-.369-.34-.874-.34-1.338-.98.791-1.6 1.634-2.35 2.457-.15-.111-.29-.487-.4-1.082-2.33 2.252-5.61 7.926-.85 10.176 4.05-3.342 14.25-7.591 14.25-7.591ZM1586.2 443.785c.03 4.204-3.65 7.63-8.21 7.652-4.56.022-8.27-3.368-8.3-7.572v-.08c-.02-4.203 3.65-7.629 8.21-7.651 4.56-.022 8.28 3.367 8.3 7.571v.08Zm-13.03-21.743c3.42 2.241 4.04 7.32 1.38 11.345-2.66 4.024-7.59 5.471-11.01 3.23s-4.04-7.32-1.38-11.345c2.66-4.024 7.59-5.471 11.01-3.23Zm9.23-.406c-3.42 2.241-4.03 7.321-1.37 11.345 2.65 4.025 7.58 5.471 11 3.23s4.04-7.32 1.38-11.345c-2.66-4.024-7.59-5.47-11.01-3.23Zm-26.32 4.07c3.69-.99 1.24 15.276-1.76 13.941-3.31-2.658-4.37-10.442 1.76-13.941Zm42.67-.203c-3.69-.99-1.25 15.277 1.76 13.943 3.3-2.659 4.37-10.444-1.76-13.943Zm-12.55-12.114c6.38-1.075 11.68 2.711 11.46 9.621-.21 2.649-13.8-9.226-11.46-9.621Zm-17.6-.202c-6.38-1.076-11.68 2.711-11.46 9.62.21 2.649 13.8-9.226 11.46-9.62Zm9.15-1.612c-3.8-.099-7.45 2.823-7.46 4.518-.01 2.059 3.01 4.167 7.49 4.221 4.57.032 7.49-1.688 7.51-3.813.01-2.408-4.16-4.963-7.54-4.926Zm.23 42.226c3.32-.145 7.77 1.068 7.78 2.677.05 1.562-4.04 5.092-8 5.024-4.1.177-8.12-3.358-8.07-4.584-.06-1.796 5-3.199 8.29-3.117Zm-12.24-9.535c2.36 2.844 3.43 7.841 1.46 9.314-1.86 1.125-6.39.662-9.61-3.96-2.17-3.879-1.89-7.825-.36-8.985 2.28-1.387 5.8.487 8.51 3.631Zm24.02-.902c-2.56 2.992-3.98 8.449-2.12 10.207 1.79 1.365 6.57 1.174 10.1-3.728 2.57-3.292 1.71-8.791.24-10.251-2.17-1.684-5.3.471-8.22 3.771v.001Z" style="fill:none;fill-rule:nonzero;stroke:#0969da;stroke-width:.5px;stroke-linecap:butt;stroke-miterlimit:2"/><path d="M965.446 516.326c-143.651.536-201.813 84.451-177.639 165.423 23.259 77.908 127.356 158.275 316.823 158.275 6.9 0 12.5-5.601 12.5-12.5s-5.6-12.5-12.5-12.5c-173.758 0-271.537-68.978-292.868-140.426-20.266-67.883 33.311-132.78 153.684-133.272v-25Z" style="fill:none;stroke:#0969da;stroke-width:1px;stroke-linecap:butt;stroke-miterlimit:2"/><path d="m1086.5 475.237-6.59.966a6.992 6.992 0 0 0-2.15-3.246 6.993 6.993 0 0 0-5.66-1.576l-4.26.696a6.99 6.99 0 0 0-5.87 6.754l-6.72.985a7.094 7.094 0 0 0-2.02-2.859 6.993 6.993 0 0 0-5.66-1.576l-4.26.696a6.993 6.993 0 0 0-5.85 6.345l-6.9 1.011a6.927 6.927 0 0 0-1.86-2.476 6.993 6.993 0 0 0-5.66-1.576l-4.27.696a7.006 7.006 0 0 0-5.8 5.932l-7.13 1.044a6.993 6.993 0 0 0-7.33-3.672l-4.265.696a6.996 6.996 0 0 0-5.732 5.515l-7.41 1.086a7.003 7.003 0 0 0-7.123-3.297l-4.265.696a7 7 0 0 0-5.873 6.908v67.676a7 7 0 0 0 5.873 6.909l4.265.696a7.003 7.003 0 0 0 7.123-3.297l7.41 1.085a6.997 6.997 0 0 0 5.732 5.516l4.265.696a6.993 6.993 0 0 0 7.33-3.673l7.13 1.044a7.006 7.006 0 0 0 5.8 5.933l4.27.696c2.03.33 4.1-.246 5.66-1.576a6.927 6.927 0 0 0 1.86-2.476l6.9 1.011a6.994 6.994 0 0 0 5.85 6.345l4.26.696c2.03.33 4.1-.246 5.66-1.576a7.094 7.094 0 0 0 2.02-2.859l6.72.984a6.991 6.991 0 0 0 5.87 6.755l4.26.696c2.03.33 4.1-.246 5.66-1.576a6.992 6.992 0 0 0 2.15-3.246l6.59.966c.09 1.73.81 3.371 2.04 4.602a7.023 7.023 0 0 0 4.95 2.05h10.05c1.85 0 3.63-.737 4.95-2.05a7.012 7.012 0 0 0 2.05-4.95v-39.827c0-1.657-1.35-3-3-3h-27.11a3.438 3.438 0 0 1-3.43-3.438v-12.876a3.437 3.437 0 0 1 3.43-3.437h27.11c1.65 0 3-1.344 3-3v-40.899c0-1.857-.74-3.637-2.05-4.95a7.023 7.023 0 0 0-4.95-2.05h-10.05c-1.85 0-3.63.737-4.95 2.05a7.021 7.021 0 0 0-2.04 4.602Zm-79.89 92.436 9.29 1.362v1.626a3.998 3.998 0 0 0 3.36 3.948l4.26.696a4.016 4.016 0 0 0 3.24-.901 4.014 4.014 0 0 0 1.41-3.047v-.525l12.26 1.797v2.032a3.998 3.998 0 0 0 3.36 3.948l4.26.696a4.016 4.016 0 0 0 3.24-.901 4.014 4.014 0 0 0 1.41-3.047v-.932l12.26 1.797v2.439a3.998 3.998 0 0 0 3.36 3.948l4.26.696a4.016 4.016 0 0 0 3.24-.901 4.014 4.014 0 0 0 1.41-3.047v-1.338l12.26 1.797v2.246a3.998 3.998 0 0 0 4 4h10.05c1.06 0 2.07-.421 2.82-1.172a4.007 4.007 0 0 0 1.18-2.828v-39.827h-27.11c-3.55 0-6.43-2.885-6.43-6.438v-12.876a6.436 6.436 0 0 1 6.43-6.437h27.11v-40.899a4.01 4.01 0 0 0-1.18-2.829 3.982 3.982 0 0 0-2.82-1.171h-10.05a4 4 0 0 0-4 4v2.246l-12.26 1.797v-1.338c0-1.174-.52-2.288-1.41-3.048a4.015 4.015 0 0 0-3.24-.9l-4.26.695a4 4 0 0 0-3.36 3.948v2.439l-12.26 1.797v-.931c0-1.174-.52-2.288-1.41-3.048a4.015 4.015 0 0 0-3.24-.9l-4.26.695a4 4 0 0 0-3.36 3.948v2.033l-12.26 1.797v-.525c0-1.174-.52-2.288-1.41-3.048a4.015 4.015 0 0 0-3.24-.9l-4.26.695a4 4 0 0 0-3.36 3.948v1.627l-12.26 1.797v-.119c0-1.174-.52-2.288-1.41-3.048a4.012 4.012 0 0 0-3.237-.9l-4.265.695a4 4 0 0 0-3.356 3.948v1.221l-12.276 1.798a3.998 3.998 0 0 0-4.633-3.662l-4.265.695a4 4 0 0 0-3.356 3.948v67.676a4 4 0 0 0 3.356 3.948l4.265.696a4 4 0 0 0 4.633-3.662l12.276 1.798v1.22a4 4 0 0 0 3.356 3.948l4.265.696a4.012 4.012 0 0 0 3.237-.901c.1-.084.19-.173.28-.267.35.142.73.22 1.13.22 0 0-.39-.034-.89-.205l-.19-.07c.15-.16.29-.331.41-.512l.67.668.13-.241c.27-.498.92-1.667 1.53-2.515l1.16.17c-.53.807-2.17 2.169-2.67 2.582a3.008 3.008 0 0 0 2.82-2.561Zm-2.88 2.61-.09.074c.13 0 .27-.009.4-.028l-.31-.046Z" style="fill:#0969da"/><path d="M255.221 143.034a17.966 17.966 0 0 1 5.344-.807h130.026c9.941 0 18 8.059 18 18v160.524c0 9.941 8.059 18 18 18h91a18 18 0 0 1 18 18v562.246c0 2.344-.448 4.583-1.264 6.638a13.49 13.49 0 0 0-.604-.014c-6.469 0-11.824 4.809-12.682 11.045-1.117.217-2.27.331-3.45.331H260.565c-1.934 0-3.797-.305-5.544-.87-.999-5.511-5.533-9.799-11.165-10.427a17.929 17.929 0 0 1-1.291-6.703v-758.77c0-1.38.156-2.724.45-4.015 6.793-.309 12.212-5.921 12.212-12.789 0-.13-.002-.261-.006-.389Z" style="fill:none;stroke:#0969da;stroke-width:.5px"/><path d="M1057.93 333.95a4.284 4.284 0 0 0-4.12 4.286v.936a8.03 8.03 0 0 1-7.58 8.014l-30.83 1.721c-8.59.48-15.3 7.585-15.3 16.187v38.112c0 8.602 6.71 15.707 15.3 16.187l30.83 1.721a8.03 8.03 0 0 1 7.58 8.015v.924a4.292 4.292 0 0 0 4.13 4.297l49.57 1.846V332.104l-49.58 1.846Z" style="fill:none;stroke:#0969da;stroke-width:3px"/><path d="m877.317 323.365-11.202 11.201c30.119 28.94 68.259 57.578 133.965 57.584v-16c-59.997 0-95.082-26.127-122.763-52.785Zm-20.779 1.776 11.226-11.227c-8.672-8.755-16.755-17.231-24.89-24.505-16.19-14.475-32.657-24.547-52.901-25.317-28.814-1.096-66.631 17.416-124.525 75.311a8.003 8.003 0 0 0 0 11.313 8.003 8.003 0 0 0 11.313 0c52.881-52.88 86.285-71.636 112.604-70.635 12.144.462 22.459 5.404 32.349 12.659 10.917 8.008 21.273 18.76 32.552 30.117.752.758 1.508 1.518 2.272 2.284Z" style="fill:none;stroke:#0969da;stroke-width:1px;stroke-linecap:butt;stroke-miterlimit:2"/></svg>